<?xml version="1.0" standalone="no"?>
<!DOCTYPE svg PUBLIC "-//W3C//DTD SVG 20010904//EN"
 "http://www.w3.org/TR/2001/REC-SVG-20010904/DTD/svg10.dtd">
<svg version="1.0" xmlns="http://www.w3.org/2000/svg"
 width="2000.000000pt" height="2000.000000pt" viewBox="0 0 2000.000000 2000.000000"
 preserveAspectRatio="xMidYMid meet">

<g transform="translate(0.000000,2000.000000) scale(0.100000,-0.100000)"
fill="#000000" stroke="none">
<path d="M9892 19980 c-9 -15 -8 -23 6 -40 17 -21 18 -21 18 -2 0 11 -3 20 -6
20 -18 -1 -21 4 -10 17 7 9 11 17 9 20 -3 2 -10 -4 -17 -15z"/>
<path d="M16564 19978 c4 -13 14 -67 24 -121 13 -82 14 -111 4 -190 -13 -102
-40 -192 -76 -251 l-23 -39 3 54 3 54 -9 -57 c-11 -66 -28 -105 -64 -139 -14
-13 -26 -27 -26 -31 0 -10 -49 -58 -59 -58 -4 0 -22 -13 -39 -30 -18 -16 -36
-30 -41 -30 -5 0 -11 -3 -13 -7 -3 -7 -117 -66 -163 -84 -54 -21 -119 -32
-205 -34 l-95 -3 3 -74 c5 -91 -21 -229 -59 -319 l-28 -67 29 -60 c26 -55 60
-184 60 -231 0 -11 -8 -25 -17 -31 -17 -11 -17 -11 0 -6 14 4 17 -1 17 -29 0
-40 4 -41 53 -20 20 8 38 15 41 15 3 0 12 -24 20 -54 19 -64 99 -161 114 -137
7 9 12 10 16 2 4 -6 2 -11 -4 -11 -7 0 -10 -15 -8 -37 2 -27 7 -37 17 -35 11
2 12 0 2 -11 -9 -12 -8 -25 5 -63 39 -116 140 -220 261 -270 31 -12 61 -30 66
-40 9 -16 4 -17 -69 -11 -44 3 -234 22 -424 41 -190 20 -358 37 -375 38 -18 1
-56 -12 -95 -32 -108 -56 -117 -60 -138 -60 -12 0 -23 -4 -26 -9 -10 -16 -147
-34 -225 -28 -42 2 -101 11 -131 18 -49 11 -52 13 -30 20 18 6 14 7 -13 3 -53
-7 -207 67 -207 100 0 17 -2 18 -10 6 -7 -12 -20 -3 -66 43 -31 31 -60 57 -65
57 -5 0 -19 18 -31 40 -21 36 -51 52 -60 32 -6 -16 -129 -71 -173 -78 -25 -3
-68 -1 -97 6 -80 18 -88 23 -43 31 35 6 33 6 -13 4 -30 -2 -50 0 -47 6 4 5 -1
10 -9 10 -37 3 -59 16 -50 30 3 5 2 9 -3 8 -23 -4 -35 2 -29 17 4 9 2 13 -5 8
-14 -8 -58 44 -59 69 0 9 -4 17 -8 17 -12 0 -43 70 -37 81 4 5 -1 12 -10 16
-10 3 -21 0 -25 -7 -4 -7 -22 -13 -39 -12 -17 0 -29 -3 -27 -7 6 -10 -61 -31
-97 -31 -14 0 -36 4 -49 9 -13 5 -42 15 -65 21 -23 7 -44 19 -47 26 -3 8 -12
14 -20 14 -13 0 -72 59 -95 96 -9 13 -14 15 -17 7 -3 -7 -15 -13 -25 -13 -13
0 -18 -4 -13 -12 5 -8 2 -9 -10 -5 -11 4 -15 3 -11 -4 4 -6 -1 -17 -11 -24
-25 -19 -102 -57 -108 -53 -2 2 -13 -5 -25 -16 -14 -13 -28 -17 -48 -12 -22 5
-25 4 -13 -5 12 -9 11 -10 -7 -5 -63 17 -69 17 -43 5 l25 -12 -35 -9 c-61 -16
-83 -18 -190 -20 -79 -1 -121 3 -169 18 -63 19 -64 19 -30 26 23 5 17 5 -18 2
-28 -2 -53 -1 -55 4 -1 4 -34 23 -72 42 -69 34 -126 79 -126 100 0 6 -4 8 -10
5 -5 -3 -10 1 -10 10 0 8 -11 20 -24 25 -14 5 -30 18 -36 30 -15 28 -25 25
-51 -17 -21 -33 -55 -70 -103 -110 -33 -28 -119 -54 -167 -50 -27 2 -49 0 -49
-4 0 -5 -13 -16 -30 -25 -16 -10 -32 -25 -35 -33 -4 -10 3 -7 18 7 13 12 27
22 33 22 5 0 1 -5 -8 -11 -10 -5 -18 -16 -18 -23 0 -7 -11 -18 -25 -24 -14 -6
-25 -17 -25 -23 0 -6 -6 -9 -12 -6 -16 6 -48 -10 -48 -24 0 -6 7 -3 16 5 22
23 30 20 9 -4 -10 -11 -22 -17 -27 -14 -5 3 -17 -3 -26 -13 -21 -24 -96 -55
-115 -47 -12 4 -13 -5 -5 -51 28 -179 174 -303 357 -306 l66 -1 -50 -14 c-27
-8 -92 -24 -144 -35 -108 -23 -101 -26 -177 72 -54 71 -128 120 -230 155 -68
23 -101 28 -230 32 -275 9 -377 -28 -526 -189 -77 -83 -100 -101 -167 -133
-96 -45 -164 -53 -326 -37 -146 14 -188 32 -314 129 -157 121 -257 155 -466
156 -259 1 -433 -72 -693 -293 -211 -178 -247 -198 -415 -227 -72 -13 -132
-15 -277 -11 -228 7 -248 11 -600 121 -183 58 -219 57 -452 -3 -434 -112 -491
-116 -853 -55 -185 32 -253 34 -325 10 -61 -21 -282 -118 -435 -193 l-100 -48
-170 1 c-93 0 -267 2 -385 5 -234 4 -251 2 -465 -68 -80 -26 -303 -119 -317
-132 -4 -4 4 -23 19 -44 25 -36 43 -47 43 -28 0 5 26 22 58 36 75 36 177 44
247 20 60 -20 126 -56 120 -65 -2 -3 9 -4 25 -2 54 8 138 -28 253 -111 62 -43
142 -97 179 -119 l67 -39 598 96 c329 53 652 105 718 115 66 11 233 38 370 60
189 31 342 48 625 70 206 17 461 37 565 45 216 17 1109 87 1410 110 306 24
1022 80 1595 125 283 22 520 38 527 36 6 -3 23 4 36 14 22 18 24 24 16 57 -13
59 5 159 37 205 26 36 84 87 84 73 0 -4 7 0 15 9 19 18 78 36 120 36 42 0 76
-11 69 -21 -3 -5 2 -6 10 -3 9 3 16 1 16 -6 0 -6 5 -8 11 -4 6 3 30 -13 54
-36 l42 -42 39 20 c56 28 93 35 110 21 8 -7 17 -9 21 -5 3 3 1 6 -5 6 -7 0
-12 4 -12 9 0 16 119 -21 145 -45 14 -13 25 -20 25 -17 0 4 12 -4 26 -18 15
-14 23 -31 20 -42 -3 -13 0 -17 9 -13 10 3 18 -12 28 -57 11 -51 17 -62 33
-60 10 1 31 3 47 5 15 1 27 6 27 10 0 10 68 9 95 -1 19 -8 19 -8 0 -19 -18
-10 -17 -11 13 -12 30 0 47 19 20 21 -36 3 83 18 197 24 l131 7 36 -74 c20
-40 46 -107 59 -148 23 -72 24 -86 21 -330 -3 -332 -20 -460 -60 -460 -31 0
-278 144 -404 235 l-47 35 21 46 c30 68 11 180 -32 191 -10 3 -8 -2 5 -12 19
-15 19 -16 -12 -10 -26 4 -34 1 -43 -15 -6 -11 -8 -20 -5 -20 3 0 -4 -19 -16
-42 -12 -24 -21 -44 -20 -46 1 -1 -6 -14 -16 -28 -62 -89 -143 -135 -248 -141
-52 -3 -66 -2 -55 6 11 8 7 9 -17 5 -26 -5 -48 1 -102 30 l-70 36 -25 -25
c-14 -14 -34 -25 -46 -25 -11 0 -20 -5 -20 -11 0 -7 -10 -9 -27 -5 -18 4 -23
3 -15 -2 18 -12 -6 -22 -51 -22 l-32 -1 28 -23 c16 -12 58 -34 95 -47 90 -32
239 -33 322 -2 30 12 80 23 111 26 31 3 85 17 120 31 l63 25 85 -77 c46 -42
142 -133 212 -202 183 -179 213 -251 153 -375 -37 -77 -147 -188 -234 -236
-66 -35 -250 -113 -255 -107 -2 2 -15 35 -30 73 -98 263 -298 428 -595 492
-128 27 -405 24 -515 -6 -316 -86 -539 -318 -639 -665 -14 -50 -29 -93 -33
-96 -5 -4 -39 -19 -78 -35 -136 -55 -300 -144 -354 -192 -59 -53 -67 -82 -37
-128 20 -31 103 -79 174 -102 28 -9 52 -19 52 -23 0 -3 -27 -32 -60 -65 -33
-33 -60 -64 -60 -70 0 -12 83 -35 125 -35 13 0 53 14 90 30 l68 30 -37 -45
-37 -45 28 -11 c73 -28 164 -43 192 -32 l29 10 -24 -34 c-49 -73 -41 -153 21
-213 31 -30 42 -34 98 -38 49 -2 69 1 95 17 50 32 72 76 72 146 l1 60 67 52
c37 29 82 64 101 79 l34 28 -8 -30 c-13 -48 -11 -65 10 -80 19 -12 30 -7 125
62 196 142 365 230 520 270 134 35 354 10 404 -45 70 -77 57 -331 -28 -551
-73 -188 -49 -284 48 -195 115 105 283 40 294 -116 6 -78 -26 -135 -95 -170
-26 -13 -49 -24 -51 -25 -1 0 -7 -27 -12 -60 -6 -32 -12 -72 -15 -88 -5 -26
-3 -28 23 -21 94 23 267 164 331 270 42 69 83 182 107 295 26 123 24 328 -5
435 -41 154 -138 313 -286 465 l-73 75 -6 99 -6 99 203 -6 c111 -4 523 -12
915 -18 638 -11 715 -10 729 3 28 29 2 51 -94 77 -119 32 -384 126 -458 163
-119 58 -189 158 -261 373 -62 187 -78 381 -49 594 22 156 79 381 116 454 55
108 231 357 267 376 9 5 69 12 133 16 l116 7 41 -29 c109 -79 271 -66 359 29
l23 24 77 -38 c108 -52 224 -68 337 -45 89 18 165 52 231 102 l44 34 423 16
c429 16 750 28 1182 45 l239 10 38 -40 c55 -57 134 -75 204 -46 34 15 35 14
49 -12 41 -80 150 -123 232 -92 32 13 57 -6 105 -82 70 -109 84 -189 71 -400
l-9 -137 -33 -31 c-31 -29 -32 -32 -25 -83 26 -173 -33 -249 -267 -345 -31
-13 -37 -42 -13 -62 12 -10 122 -15 447 -21 237 -4 436 -5 443 -3 19 8 25 42
10 57 -7 8 -54 28 -105 47 -118 42 -156 78 -198 186 -43 111 -56 189 -50 297
6 108 41 263 73 327 25 49 125 187 173 238 28 30 72 44 72 22 0 -5 14 -25 30
-44 55 -63 139 -71 199 -20 l30 25 43 -22 c126 -64 301 -14 378 108 25 39 38
49 86 65 73 25 130 64 178 122 41 50 86 144 86 179 0 29 14 46 68 81 69 44
101 144 72 222 -9 23 -7 31 14 53 33 35 46 72 46 135 l0 52 64 42 c35 23 74
56 88 74 35 47 70 119 65 132 -3 7 1 23 9 37 13 24 19 130 8 142 -4 4 -8 22
-10 41 -3 31 -50 136 -61 136 -2 0 -1 -5 3 -12 4 -7 3 -8 -5 -4 -6 4 -9 12 -5
17 10 17 -17 41 -32 29 -9 -9 -11 -7 -7 9 5 20 -20 42 -66 56 -18 6 -22 4 -15
-6 6 -11 3 -10 -12 1 -29 22 -30 24 -11 17 22 -8 22 2 1 18 -15 11 -14 18 17
81 32 65 34 74 33 171 0 85 -4 110 -24 155 -27 59 -58 100 -71 92 -5 -3 -9 1
-9 9 0 8 -11 27 -25 43 -14 16 -25 25 -25 20 0 -4 -9 2 -21 15 -11 13 -17 17
-13 9 4 -8 -4 -4 -19 10 -16 15 -27 36 -27 53 0 38 -35 103 -65 123 -24 15
-25 22 -25 105 0 96 -26 190 -58 209 -9 5 -13 10 -8 10 6 0 1 7 -10 15 -16 12
-181 14 -1233 15 l-1213 0 6 -22z m2591 -489 c3 -4 -4 -13 -16 -19 -13 -8 -19
-8 -15 -2 4 6 -1 15 -10 20 -14 8 -12 10 10 10 14 0 29 -4 31 -9z m316 -742
c-6 -8 -7 -18 -3 -23 4 -4 -1 -2 -10 5 -19 14 -25 26 -9 16 5 -3 12 -1 16 5 3
5 9 10 12 10 3 0 0 -6 -6 -13z m-7336 -1263 c-46 -20 -64 -15 -25 5 19 11 39
16 45 13 5 -3 -4 -12 -20 -18z m5788 -239 l27 -24 -46 -78 c-56 -95 -81 -123
-110 -123 -29 0 -34 16 -41 131 l-6 97 24 -5 c13 -2 42 2 64 10 54 20 56 20
88 -8z m-4463 -73 c0 -18 -80 -132 -104 -147 -28 -18 -82 -23 -97 -8 -11 11
-35 130 -28 137 3 3 52 9 109 14 58 5 108 10 113 11 4 0 7 -3 7 -7z m-2059
-1614 c192 -70 210 -195 41 -271 -76 -35 -144 -47 -251 -47 -258 1 -424 126
-321 244 64 72 188 108 355 102 84 -3 126 -10 176 -28z m-648 -1136 c-3 -29
-10 -52 -15 -52 -5 0 -7 9 -3 20 5 15 0 21 -20 26 -14 3 -37 4 -50 2 -14 -3
-25 -4 -25 -2 0 5 114 63 117 60 1 -1 0 -26 -4 -54z m35 -230 c4 -28 -24 -40
-45 -19 -21 21 -9 49 19 45 15 -2 24 -11 26 -26z"/>
<path d="M6441 19890 c-1 -38 15 -58 21 -26 3 14 2 23 -3 21 -4 -3 -10 3 -12
12 -3 12 -5 10 -6 -7z"/>
<path d="M9861 19874 c0 -11 3 -14 6 -6 3 7 2 16 -1 19 -3 4 -6 -2 -5 -13z"/>
<path d="M9864 19809 c-3 -6 -1 -16 5 -22 8 -8 11 -5 11 11 0 24 -5 28 -16 11z"/>
<path d="M9862 19745 c0 -11 4 -31 8 -45 6 -20 8 -21 8 -5 0 11 -4 31 -8 45
-6 20 -8 21 -8 5z"/>
<path d="M16445 19690 c3 -14 5 -32 5 -41 0 -8 7 -24 15 -35 15 -18 15 -18 6
6 -5 14 -14 41 -20 60 -6 19 -9 24 -6 10z"/>
<path d="M9881 19644 c0 -11 3 -14 6 -6 3 7 2 16 -1 19 -3 4 -6 -2 -5 -13z"/>
<path d="M9890 19616 c0 -2 7 -7 16 -10 8 -3 12 -2 9 4 -6 10 -25 14 -25 6z"/>
<path d="M6414 19533 c-4 -14 -7 -36 -8 -47 -3 -66 -148 -241 -254 -305 -28
-18 -52 -37 -52 -41 0 -5 14 -33 31 -62 75 -127 125 -304 137 -490 l7 -102 67
67 c238 234 285 588 117 870 -42 70 -48 98 -27 125 7 8 7 12 -1 12 -6 0 -14
-12 -17 -27z"/>
<path d="M9870 19514 c-51 -81 -74 -166 -74 -279 0 -158 50 -280 159 -390 l60
-60 6 95 c10 142 43 256 103 365 14 25 26 49 26 53 0 4 -13 13 -30 20 -57 26
-200 182 -200 219 0 30 -23 20 -50 -23z"/>
<path d="M13080 19444 c0 -8 5 -12 10 -9 6 4 8 11 5 16 -9 14 -15 11 -15 -7z"/>
<path d="M6240 19379 c0 -5 5 -7 10 -4 6 3 10 8 10 11 0 2 -4 4 -10 4 -5 0
-10 -5 -10 -11z"/>
<path d="M10338 19343 c7 -3 16 -2 19 1 4 3 -2 6 -13 5 -11 0 -14 -3 -6 -6z"/>
<path d="M12850 19240 c0 -5 7 -7 15 -4 8 4 15 8 15 10 0 2 -7 4 -15 4 -8 0
-15 -4 -15 -10z"/>
<path d="M5880 19210 c0 -5 5 -10 11 -10 5 0 7 5 4 10 -3 6 -8 10 -11 10 -2 0
-4 -4 -4 -10z"/>
<path d="M5690 19190 c0 -5 14 -10 30 -10 17 0 30 5 30 10 0 6 -13 10 -30 10
-16 0 -30 -4 -30 -10z"/>
<path d="M5770 19186 c5 -5 26 -5 52 1 l43 10 -52 -1 c-31 -1 -48 -5 -43 -10z"/>
<path d="M10455 19170 c-3 -5 -2 -10 4 -10 5 0 13 5 16 10 3 6 2 10 -4 10 -5
0 -13 -4 -16 -10z"/>
<path d="M10426 19145 c-3 -8 -1 -15 4 -15 6 0 10 7 10 15 0 8 -2 15 -4 15 -2
0 -6 -7 -10 -15z"/>
<path d="M12945 19151 c-3 -5 -1 -12 5 -16 5 -3 10 1 10 9 0 18 -6 21 -15 7z"/>
<path d="M5578 19143 c12 -2 32 -2 45 0 12 2 2 4 -23 4 -25 0 -35 -2 -22 -4z"/>
<path d="M10450 19133 c0 -10 4 -14 8 -8 4 6 11 13 16 18 5 4 2 7 -7 7 -10 0
-17 -8 -17 -17z"/>
<path d="M12990 19098 c0 -15 8 -18 53 -16 l52 1 -45 4 c-24 3 -48 10 -52 16
-5 8 -8 6 -8 -5z"/>
<path d="M5560 19091 c0 -5 7 -12 16 -15 14 -5 15 -4 4 9 -14 17 -20 19 -20 6z"/>
<path d="M10375 19090 c-3 -5 -1 -10 4 -10 6 0 11 5 11 10 0 6 -2 10 -4 10 -3
0 -8 -4 -11 -10z"/>
<path d="M3288 19083 c6 -2 18 -2 25 0 6 3 1 5 -13 5 -14 0 -19 -2 -12 -5z"/>
<path d="M12678 19083 c7 -3 16 -2 19 1 4 3 -2 6 -13 5 -11 0 -14 -3 -6 -6z"/>
<path d="M5600 19060 c0 -5 5 -10 11 -10 5 0 7 5 4 10 -3 6 -8 10 -11 10 -2 0
-4 -4 -4 -10z"/>
<path d="M10347 19063 c-4 -3 -7 -11 -7 -17 0 -6 5 -5 12 2 6 6 9 14 7 17 -3
3 -9 2 -12 -2z"/>
<path d="M3328 19043 c6 -2 18 -2 25 0 6 3 1 5 -13 5 -14 0 -19 -2 -12 -5z"/>
<path d="M15768 19033 c7 -3 16 -2 19 1 4 3 -2 6 -13 5 -11 0 -14 -3 -6 -6z"/>
<path d="M5660 19010 c0 -6 7 -10 15 -10 8 0 15 2 15 4 0 2 -7 6 -15 10 -8 3
-15 1 -15 -4z"/>
<path d="M5695 18980 c3 -5 8 -10 11 -10 2 0 4 5 4 10 0 6 -5 10 -11 10 -5 0
-7 -4 -4 -10z"/>
<path d="M12360 18980 c0 -5 5 -10 11 -10 5 0 7 5 4 10 -3 6 -8 10 -11 10 -2
0 -4 -4 -4 -10z"/>
<path d="M15763 18915 c0 -22 2 -30 4 -17 2 12 2 30 0 40 -3 9 -5 -1 -4 -23z"/>
<path d="M10230 18909 c-16 -30 -8 -31 13 -3 10 13 13 24 8 24 -6 0 -15 -9
-21 -21z"/>
<path d="M12608 18923 c7 -3 16 -2 19 1 4 3 -2 6 -13 5 -11 0 -14 -3 -6 -6z"/>
<path d="M5770 18916 c0 -2 7 -7 16 -10 8 -3 12 -2 9 4 -6 10 -25 14 -25 6z"/>
<path d="M5846 18825 c-9 -26 -7 -32 5 -12 6 10 9 21 6 23 -2 3 -7 -2 -11 -11z"/>
<path d="M5911 18763 c7 -12 15 -20 18 -17 3 2 -3 12 -13 22 -17 16 -18 16 -5
-5z"/>
<path d="M15682 18560 c0 -14 2 -19 5 -12 2 6 2 18 0 25 -3 6 -5 1 -5 -13z"/>
<path d="M10070 18561 c0 -6 4 -13 10 -16 6 -3 7 1 4 9 -7 18 -14 21 -14 7z"/>
<path d="M10103 18485 c0 -8 4 -12 9 -9 5 3 6 10 3 15 -9 13 -12 11 -12 -6z"/>
<path d="M10187 18380 c-3 -11 -2 -22 2 -24 4 -3 8 6 9 20 2 29 -4 31 -11 4z"/>
<path d="M10184 18333 c10 -13 23 -20 29 -16 7 4 6 8 -3 11 -8 3 -22 10 -30
16 -8 6 -7 1 4 -11z"/>
<path d="M10220 18295 c0 -12 12 -27 30 -37 30 -17 30 -17 19 3 -6 11 -13 18
-17 15 -3 -4 -12 4 -19 16 -11 21 -12 22 -13 3z"/>
<path d="M6161 18284 c0 -11 3 -14 6 -6 3 7 2 16 -1 19 -3 4 -6 -2 -5 -13z"/>
<path d="M6191 18174 c0 -11 3 -14 6 -6 3 7 2 16 -1 19 -3 4 -6 -2 -5 -13z"/>
<path d="M10320 18186 c0 -2 8 -10 18 -17 15 -13 16 -12 3 4 -13 16 -21 21
-21 13z"/>
<path d="M6163 18140 c-1 -11 1 -22 5 -24 4 -2 8 7 8 20 1 13 -1 24 -5 24 -4
0 -7 -9 -8 -20z"/>
<path d="M10386 18148 c3 -5 10 -6 15 -3 13 9 11 12 -6 12 -8 0 -12 -4 -9 -9z"/>
<path d="M15765 18150 c3 -5 8 -10 11 -10 2 0 4 5 4 10 0 6 -5 10 -11 10 -5 0
-7 -4 -4 -10z"/>
<path d="M10406 18135 c-11 -8 -15 -15 -9 -15 6 0 16 7 23 15 16 19 11 19 -14
0z"/>
<path d="M10425 18119 c-4 -6 -5 -12 -2 -15 2 -3 7 2 10 11 7 17 1 20 -8 4z"/>
<path d="M6125 18070 c-3 -5 -1 -10 4 -10 6 0 11 5 11 10 0 6 -2 10 -4 10 -3
0 -8 -4 -11 -10z"/>
<path d="M13210 18070 c0 -12 8 -12 35 0 18 8 17 9 -7 9 -16 1 -28 -3 -28 -9z"/>
<path d="M6135 18039 c-4 -6 -5 -12 -2 -15 2 -3 7 2 10 11 7 17 1 20 -8 4z"/>
<path d="M10578 18033 c7 -3 16 -2 19 1 4 3 -2 6 -13 5 -11 0 -14 -3 -6 -6z"/>
<path d="M6095 17990 c3 -5 8 -10 11 -10 2 0 4 5 4 10 0 6 -5 10 -11 10 -5 0
-7 -4 -4 -10z"/>
<path d="M10680 17978 c0 -21 53 -99 91 -135 19 -17 59 -44 89 -60 49 -25 65
-28 150 -28 78 0 104 4 147 24 63 28 84 48 62 61 -74 43 -117 75 -110 79 5 3
-3 15 -17 25 -14 11 -22 13 -17 5 5 -7 -3 -4 -17 7 -24 18 -33 20 -100 12 -40
-5 -89 -6 -108 -2 -19 3 -57 8 -83 9 -26 2 -57 7 -67 10 -13 4 -20 2 -20 -7z"/>
<path d="M15720 17986 c0 -2 7 -9 15 -16 13 -11 14 -10 9 4 -5 14 -24 23 -24
12z"/>
<path d="M6045 17911 c-3 -5 -2 -12 3 -15 5 -3 9 1 9 9 0 17 -3 19 -12 6z"/>
<path d="M6000 17864 c0 -11 -5 -25 -12 -32 -7 -7 -8 -12 -2 -12 17 0 37 41
25 53 -8 8 -11 5 -11 -9z"/>
<path d="M15672 17844 c-7 -8 -8 -14 -3 -14 10 0 25 19 20 25 -2 1 -10 -3 -17
-11z"/>
<path d="M11286 17831 c-3 -5 4 -11 16 -14 30 -8 35 -1 9 12 -11 6 -22 7 -25
2z"/>
<path d="M15646 17812 c-3 -5 1 -9 9 -9 8 0 12 4 9 9 -3 4 -7 8 -9 8 -2 0 -6
-4 -9 -8z"/>
<path d="M11358 17803 c7 -3 16 -2 19 1 4 3 -2 6 -13 5 -11 0 -14 -3 -6 -6z"/>
<path d="M11488 17803 c6 -2 18 -2 25 0 6 3 1 5 -13 5 -14 0 -19 -2 -12 -5z"/>
<path d="M5924 17792 c4 -3 14 -7 22 -8 9 -1 13 0 10 4 -4 3 -14 7 -22 8 -9 1
-13 0 -10 -4z"/>
<path d="M3362 17749 c-69 -79 -103 -109 -115 -103 -7 4 -9 3 -4 -1 8 -10 -41
-65 -58 -65 -7 0 -20 -9 -29 -19 -10 -11 -31 -23 -48 -26 -16 -4 -27 -9 -24
-12 6 -7 -40 -33 -57 -33 -6 0 -2 7 9 15 18 14 17 14 -9 3 -19 -8 -26 -17 -22
-27 3 -8 3 -13 0 -9 -4 3 -31 -5 -61 -18 -30 -13 -67 -24 -83 -24 -15 0 -31
-3 -35 -7 -4 -5 -20 -10 -34 -12 -40 -5 -272 -4 -307 2 -16 2 -34 5 -38 6 -5
0 -5 6 -2 11 3 6 -1 10 -10 10 -10 0 -13 -5 -9 -12 6 -10 5 -10 -8 -1 -8 7
-18 10 -21 6 -4 -3 -13 0 -22 7 -8 7 -15 9 -15 5 0 -4 -6 -2 -14 4 -8 6 -18
11 -22 10 -10 -2 -31 5 -82 27 -21 9 -30 19 -26 26 5 7 2 9 -7 6 -20 -8 -59 9
-55 24 1 7 1 10 -1 6 -9 -15 -30 -8 -53 17 -13 14 -29 25 -35 25 -6 0 -24 14
-40 30 -31 32 -55 39 -55 15 0 -8 -4 -15 -10 -15 -5 0 -10 -6 -10 -12 0 -14
-82 -96 -115 -115 -93 -54 -122 -63 -204 -63 -100 0 -162 15 -196 46 -14 13
-33 24 -41 24 -8 0 -12 5 -9 10 3 6 1 10 -4 10 -6 0 -11 -15 -11 -33 0 -21
-18 -69 -45 -121 -44 -86 -89 -139 -112 -131 -7 2 -10 -2 -6 -11 3 -8 2 -14
-3 -13 -18 3 -37 -1 -31 -7 8 -8 -59 -54 -78 -54 -8 0 -15 -4 -15 -8 0 -28
-208 -44 -277 -21 -63 20 -122 51 -120 63 1 6 -11 11 -26 12 -15 1 -33 6 -40
13 -18 18 -25 14 -54 -31 -14 -24 -28 -37 -31 -30 -2 6 -8 12 -14 12 -6 0 -7
-7 -4 -16 7 -19 -88 -119 -104 -109 -6 3 -7 -1 -4 -9 3 -9 1 -16 -5 -16 -5 0
-19 -10 -30 -21 -11 -12 -27 -19 -35 -16 -8 3 -17 -1 -20 -9 -4 -10 -2 -13 7
-8 6 4 9 4 5 -1 -14 -15 -60 -39 -163 -85 -45 -20 -96 -37 -137 -45 l-28 -5 0
-193 0 -193 68 -22 c134 -43 280 -47 415 -11 48 12 153 60 182 82 18 14 23 12
70 -30 78 -71 122 -87 240 -88 87 0 106 3 150 25 71 35 149 117 173 182 22 58
24 59 98 31 34 -12 61 -38 141 -136 183 -224 304 -399 367 -530 35 -71 110
-363 135 -522 55 -347 21 -636 -112 -957 -101 -243 -178 -308 -495 -419 -147
-52 -172 -70 -172 -131 0 -39 -5 -49 -53 -96 -53 -52 -67 -56 -67 -20 0 12 -4
16 -12 12 -6 -4 -8 -3 -4 4 7 11 -23 96 -31 88 -8 -8 -32 -129 -31 -156 0 -17
2 -19 5 -7 3 10 9 14 16 10 14 -9 28 -10 140 -17 l88 -6 -7 48 -6 47 104 -4
c56 -1 402 2 768 9 l665 12 20 -28 c156 -215 324 -306 635 -344 46 -5 105 -10
129 -10 l45 0 -78 51 c-42 28 -108 82 -146 120 -42 42 -76 69 -89 69 -64 0
-132 60 -152 132 -14 55 4 120 46 162 29 28 33 39 38 104 13 161 91 258 386
482 91 68 204 164 252 212 98 98 222 263 289 386 l45 83 49 -6 c61 -8 60 -7
231 -125 77 -54 201 -134 275 -178 123 -74 139 -87 177 -144 129 -192 192
-413 180 -637 -7 -129 -25 -201 -76 -306 -48 -96 -114 -180 -199 -252 -34 -29
-61 -53 -59 -53 2 0 32 11 67 25 238 93 397 314 440 613 11 71 15 81 34 84 18
3 22 12 28 68 3 36 10 97 14 135 l8 70 11 -135 10 -135 110 0 110 0 6 95 c3
52 6 90 7 83 1 -7 16 -50 32 -96 l31 -84 62 9 c89 12 98 16 92 41 -2 12 -14
92 -26 177 -92 684 -250 1128 -432 1222 -82 41 -209 9 -359 -93 -35 -24 -69
-48 -75 -55 -9 -8 -37 -10 -92 -7 -60 4 -89 2 -120 -10 -39 -16 -71 -14 -71 4
0 5 -10 9 -22 10 -22 1 -22 1 2 8 l25 7 -24 8 c-14 5 -26 4 -30 -2 -6 -9 -21
-6 -127 28 -17 6 -41 10 -55 10 -16 0 -20 3 -11 8 7 5 -59 10 -145 11 -87 1
-174 4 -193 5 -19 2 -55 -3 -79 -11 -24 -8 -56 -13 -70 -10 -14 3 -44 -1 -66
-9 -22 -7 -48 -14 -58 -14 -11 0 -15 -5 -11 -11 4 -7 0 -9 -13 -5 -12 4 -25 1
-33 -9 -7 -8 -17 -12 -23 -8 -6 4 -3 10 9 15 14 6 13 7 -6 2 -14 -3 -35 -8
-47 -11 -13 -3 -31 -2 -40 2 -33 14 -83 15 -80 2 1 -9 -19 -11 -73 -10 -48 1
-64 -1 -45 -6 30 -7 30 -7 6 -13 -14 -4 -45 -5 -70 -3 -33 3 -39 2 -21 -3 24
-8 24 -9 -10 -17 -19 -4 -37 -11 -40 -15 -3 -4 -16 -10 -30 -13 -22 -5 -28 0
-46 41 -12 26 -27 67 -34 92 -7 25 -15 39 -17 33 -3 -8 -22 -13 -48 -13 -43 0
-44 -1 -56 -42 -13 -51 -6 -125 16 -168 15 -30 15 -33 -2 -46 -11 -9 -30 -12
-48 -9 -16 3 -64 8 -105 11 l-75 6 -57 -46 -57 -47 -67 42 c-36 23 -101 54
-145 69 l-79 28 3 263 2 264 37 107 c62 180 140 312 255 437 l60 65 34 -17
c52 -24 116 -36 190 -37 169 0 324 99 402 258 15 29 26 42 37 38 8 -2 46 -16
83 -30 251 -95 536 70 593 345 8 39 13 72 12 73 -2 1 -21 8 -43 15 -60 20
-165 73 -165 83 0 4 -7 8 -16 8 -10 0 -14 5 -10 16 3 9 2 12 -4 9 -12 -7 -72
40 -63 49 4 3 1 6 -6 6 -13 0 -41 24 -41 35 0 3 -11 16 -25 29 -14 13 -25 27
-25 32 0 5 -30 9 -68 9 -56 0 -79 6 -142 37 -102 49 -151 93 -169 153 -9 32
-16 43 -22 33 -7 -10 -9 -10 -10 2 -1 8 -1 18 -1 22 1 3 -5 9 -13 12 -9 3 -26
-7 -43 -25z m-723 -789 c0 -76 -16 -44 -24 46 -5 66 -4 68 9 39 9 -16 15 -55
15 -85z m-739 -186 c51 -21 87 -28 164 -32 l99 -5 -7 -156 c-7 -166 -21 -286
-37 -339 -19 -59 -98 -56 -162 6 -33 32 -267 407 -267 428 0 14 125 134 135
130 6 -3 39 -17 75 -32z m3388 -1527 c18 -70 31 -207 42 -442 13 -291 12 -298
-14 -170 -25 120 -72 273 -111 362 l-25 56 35 69 c41 82 52 131 36 164 -10 22
-9 24 8 15 10 -6 23 -30 29 -54z"/>
<path d="M14295 17750 c-3 -6 1 -7 9 -4 18 7 21 14 7 14 -6 0 -13 -4 -16 -10z"/>
<path d="M5885 17740 c-3 -6 1 -7 9 -4 18 7 21 14 7 14 -6 0 -13 -4 -16 -10z"/>
<path d="M5850 17710 c0 -5 5 -10 11 -10 5 0 7 5 4 10 -3 6 -8 10 -11 10 -2 0
-4 -4 -4 -10z"/>
<path d="M15570 17706 c7 -7 13 -7 20 0 6 6 3 10 -10 10 -13 0 -16 -4 -10 -10z"/>
<path d="M5790 17640 c-9 -6 -10 -10 -3 -10 6 0 15 5 18 10 8 12 4 12 -15 0z"/>
<path d="M5689 17591 c11 -7 6 -12 -20 -19 -19 -6 -26 -11 -17 -11 9 -1 29 4
43 11 18 8 22 14 13 20 -7 4 -17 8 -23 8 -5 0 -4 -4 4 -9z"/>
<path d="M5380 17510 c12 -8 12 -10 -3 -16 -9 -3 -17 -12 -17 -20 0 -10 6 -8
20 6 21 21 19 40 -3 40 -7 0 -6 -4 3 -10z"/>
<path d="M5507 17503 c-16 -8 -26 -17 -23 -20 3 -3 20 4 38 16 37 24 27 26
-15 4z"/>
<path d="M5390 17469 c0 -5 6 -7 13 -3 9 5 9 4 1 -5 -17 -19 -196 -34 -330
-28 l-122 6 -28 -30 c-33 -35 -169 -130 -189 -133 -77 -11 61 -97 190 -118
110 -18 245 15 335 81 83 61 171 187 157 224 -7 19 -27 23 -27 6z"/>
<path d="M1330 17426 c-6 -9 -10 -21 -7 -28 4 -9 6 -7 6 4 1 9 7 18 14 21 6 2
9 7 6 11 -3 4 -12 0 -19 -8z"/>
<path d="M2512 17426 c7 -8 17 -12 22 -9 4 3 2 9 -5 14 -22 13 -31 11 -17 -5z"/>
<path d="M3949 17427 c-9 -25 -4 -35 16 -33 24 1 23 21 -1 30 -8 3 -14 4 -15
3z"/>
<path d="M11460 17295 c-8 -9 -8 -15 -2 -15 12 0 26 19 19 26 -2 2 -10 -2 -17
-11z"/>
<path d="M11427 17261 c-4 -17 -3 -21 5 -13 5 5 8 16 6 23 -3 8 -7 3 -11 -10z"/>
<path d="M4278 17219 c24 -11 46 -18 50 -15 3 3 0 6 -7 6 -7 0 -10 4 -7 9 4 5
-4 7 -16 4 -19 -4 -20 -3 -8 6 12 8 8 11 -20 10 l-35 0 43 -20z"/>
<path d="M4526 17228 c3 -4 17 -8 31 -8 15 0 23 3 20 7 -10 9 -56 10 -51 1z"/>
<path d="M11432 17090 c0 -19 2 -27 5 -17 2 9 2 25 0 35 -3 9 -5 1 -5 -18z"/>
<path d="M12458 17043 c7 -3 16 -2 19 1 4 3 -2 6 -13 5 -11 0 -14 -3 -6 -6z"/>
<path d="M12580 17011 c0 -5 5 -13 10 -16 6 -3 10 -2 10 4 0 5 -4 13 -10 16
-5 3 -10 2 -10 -4z"/>
<path d="M11313 16985 c-8 -9 -9 -16 -3 -20 6 -3 10 -2 10 4 0 6 7 8 16 4 11
-4 15 -2 12 7 -6 19 -21 21 -35 5z"/>
<path d="M12573 16977 c0 -8 6 -14 14 -14 9 0 10 4 2 14 -6 7 -12 13 -14 13
-1 0 -2 -6 -2 -13z"/>
<path d="M12611 16954 c0 -11 3 -14 6 -6 3 7 2 16 -1 19 -3 4 -6 -2 -5 -13z"/>
<path d="M265 16940 c3 -5 8 -10 11 -10 2 0 4 5 4 10 0 6 -5 10 -11 10 -5 0
-7 -4 -4 -10z"/>
<path d="M11256 16932 c-3 -5 1 -9 9 -9 8 0 12 4 9 9 -3 4 -7 8 -9 8 -2 0 -6
-4 -9 -8z"/>
<path d="M230 16920 c-9 -6 -10 -10 -3 -10 6 0 15 5 18 10 8 12 4 12 -15 0z"/>
<path d="M12641 16874 c0 -11 3 -14 6 -6 3 7 2 16 -1 19 -3 4 -6 -2 -5 -13z"/>
<path d="M11180 16791 c0 -6 5 -13 10 -16 6 -3 10 1 10 9 0 9 -4 16 -10 16 -5
0 -10 -4 -10 -9z"/>
<path d="M12631 16774 c0 -11 3 -14 6 -6 3 7 2 16 -1 19 -3 4 -6 -2 -5 -13z"/>
<path d="M12595 16710 c-3 -5 -1 -10 4 -10 6 0 11 5 11 10 0 6 -2 10 -4 10 -3
0 -8 -4 -11 -10z"/>
<path d="M4208 16683 c6 -2 18 -2 25 0 6 3 1 5 -13 5 -14 0 -19 -2 -12 -5z"/>
<path d="M4050 16650 c-9 -6 -10 -10 -3 -10 6 0 15 5 18 10 8 12 4 12 -15 0z"/>
<path d="M19878 16653 c7 -3 16 -2 19 1 4 3 -2 6 -13 5 -11 0 -14 -3 -6 -6z"/>
<path d="M19938 16643 c7 -3 16 -2 19 1 4 3 -2 6 -13 5 -11 0 -14 -3 -6 -6z"/>
<path d="M11181 16624 c0 -11 3 -14 6 -6 3 7 2 16 -1 19 -3 4 -6 -2 -5 -13z"/>
<path d="M12478 16633 c6 -2 10 -9 7 -14 -4 -5 1 -6 9 -3 20 8 11 24 -12 23
-11 0 -12 -2 -4 -6z"/>
<path d="M19750 16630 c-8 -5 -10 -10 -5 -10 6 0 17 5 25 10 8 5 11 10 5 10
-5 0 -17 -5 -25 -10z"/>
<path d="M3605 16610 c-13 -6 -15 -9 -5 -9 8 0 22 4 30 9 18 12 2 12 -25 0z"/>
<path d="M3795 16610 c27 -12 43 -12 25 0 -8 5 -22 9 -30 9 -10 0 -8 -3 5 -9z"/>
<path d="M3960 16594 c0 -8 5 -12 10 -9 6 3 10 10 10 16 0 5 -4 9 -10 9 -5 0
-10 -7 -10 -16z"/>
<path d="M4414 16591 c4 -5 1 -12 -4 -14 -6 -3 -5 -4 2 -3 15 3 23 26 8 26 -6
0 -9 -4 -6 -9z"/>
<path d="M19730 16590 c8 -5 20 -10 25 -10 6 0 3 5 -5 10 -8 5 -19 10 -25 10
-5 0 -3 -5 5 -10z"/>
<path d="M3530 16576 l-25 -14 26 1 c14 1 26 8 26 15 0 6 -1 12 -1 12 -1 -1
-12 -7 -26 -14z"/>
<path d="M19669 16582 c9 -7 10 -11 2 -15 -7 -4 -8 -5 0 -3 15 2 13 20 -3 24
-10 3 -10 2 1 -6z"/>
<path d="M3648 16573 c6 -2 18 -2 25 0 6 3 1 5 -13 5 -14 0 -19 -2 -12 -5z"/>
<path d="M11181 16564 c0 -11 3 -14 6 -6 3 7 2 16 -1 19 -3 4 -6 -2 -5 -13z"/>
<path d="M19625 16570 c-3 -6 1 -7 9 -4 18 7 21 14 7 14 -6 0 -13 -4 -16 -10z"/>
<path d="M12327 16541 c-4 -17 -3 -21 5 -13 5 5 8 16 6 23 -3 8 -7 3 -11 -10z"/>
<path d="M19546 16514 c-22 -19 -35 -34 -30 -34 6 0 23 14 39 30 21 22 31 27
37 18 6 -10 8 -10 8 -1 0 24 -16 20 -54 -13z"/>
<path d="M3480 16529 c0 -5 5 -7 10 -4 6 3 10 8 10 11 0 2 -4 4 -10 4 -5 0
-10 -5 -10 -11z"/>
<path d="M11210 16501 c0 -6 4 -13 10 -16 6 -3 7 1 4 9 -7 18 -14 21 -14 7z"/>
<path d="M3465 16490 c-3 -5 -1 -10 4 -10 6 0 11 5 11 10 0 6 -2 10 -4 10 -3
0 -8 -4 -11 -10z"/>
<path d="M19481 16446 c-23 -24 -21 -46 2 -46 7 0 6 4 -3 10 -12 7 -11 13 10
34 13 15 21 26 18 26 -2 0 -15 -11 -27 -24z"/>
<path d="M3432 16440 c0 -14 2 -19 5 -12 2 6 2 18 0 25 -3 6 -5 1 -5 -13z"/>
<path d="M4501 16444 c0 -11 3 -14 6 -6 3 7 2 16 -1 19 -3 4 -6 -2 -5 -13z"/>
<path d="M11258 16433 c7 -3 16 -2 19 1 4 3 -2 6 -13 5 -11 0 -14 -3 -6 -6z"/>
<path d="M3396 16405 c-9 -26 -7 -32 5 -12 6 10 9 21 6 23 -2 3 -7 -2 -11 -11z"/>
<path d="M11325 16365 c17 -13 34 -24 39 -25 6 0 -5 11 -24 25 -44 32 -54 32
-15 0z"/>
<path d="M12200 16380 c0 -5 5 -10 10 -10 6 0 10 5 10 10 0 6 -4 10 -10 10 -5
0 -10 -4 -10 -10z"/>
<path d="M19417 16364 c-3 -3 -3 -13 0 -22 4 -9 2 -13 -4 -9 -11 7 -38 -42
-28 -51 3 -4 8 4 12 16 6 23 23 30 23 10 0 -9 3 -9 9 1 6 9 6 22 1 32 -5 9 -6
19 -3 23 3 3 4 6 1 6 -2 0 -7 -3 -11 -6z"/>
<path d="M11385 16330 c3 -5 8 -10 11 -10 2 0 4 5 4 10 0 6 -5 10 -11 10 -5 0
-7 -4 -4 -10z"/>
<path d="M3168 16323 c6 -2 18 -2 25 0 6 3 1 5 -13 5 -14 0 -19 -2 -12 -5z"/>
<path d="M3386 16321 c-4 -7 -5 -15 -2 -18 9 -9 19 4 14 18 -4 11 -6 11 -12 0z"/>
<path d="M11436 16311 c-3 -4 6 -6 19 -3 14 2 25 6 25 8 0 8 -39 4 -44 -5z"/>
<path d="M3335 16293 c11 -3 24 -10 28 -17 6 -7 7 -6 4 4 -2 8 -14 16 -28 17
-19 1 -20 1 -4 -4z"/>
<path d="M11518 16288 c6 -6 18 -8 28 -6 14 3 12 5 -9 10 -19 3 -25 2 -19 -4z"/>
<path d="M2979 16223 l-34 -38 37 34 c22 20 41 30 49 26 8 -5 10 -4 5 3 -11
19 -20 15 -57 -25z"/>
<path d="M19347 16231 c-4 -17 -3 -21 5 -13 5 5 8 16 6 23 -3 8 -7 3 -11 -10z"/>
<path d="M19602 16220 c0 -14 2 -19 5 -12 2 6 2 18 0 25 -3 6 -5 1 -5 -13z"/>
<path d="M4540 16211 c0 -5 7 -11 15 -15 8 -3 15 -1 15 3 0 5 -7 11 -15 15 -8
3 -15 1 -15 -3z"/>
<path d="M19320 16174 c0 -8 5 -12 10 -9 6 4 8 11 5 16 -9 14 -15 11 -15 -7z"/>
<path d="M2928 16149 c-9 -16 -14 -29 -9 -29 8 0 34 50 29 56 -2 1 -11 -11
-20 -27z"/>
<path d="M4560 16170 c0 -5 5 -10 11 -10 5 0 7 5 4 10 -3 6 -8 10 -11 10 -2 0
-4 -4 -4 -10z"/>
<path d="M4600 16171 c0 -5 7 -12 16 -15 14 -5 15 -4 4 9 -14 17 -20 19 -20 6z"/>
<path d="M19300 16130 c0 -8 8 -24 16 -35 16 -19 16 -19 9 5 -9 31 -25 50 -25
30z"/>
<path d="M19341 16104 c0 -11 3 -14 6 -6 3 7 2 16 -1 19 -3 4 -6 -2 -5 -13z"/>
<path d="M4732 16000 c0 -14 2 -19 5 -12 2 6 2 18 0 25 -3 6 -5 1 -5 -13z"/>
<path d="M18840 16010 c-39 -6 -35 -7 30 -7 46 0 67 3 55 8 -23 9 -23 9 -85
-1z"/>
<path d="M18745 15980 c-3 -5 -1 -10 4 -10 6 0 11 5 11 10 0 6 -2 10 -4 10 -3
0 -8 -4 -11 -10z"/>
<path d="M18680 15964 l-25 -15 25 7 c14 3 29 10 35 15 15 14 -7 10 -35 -7z"/>
<path d="M18625 15930 c3 -5 8 -10 11 -10 2 0 4 5 4 10 0 6 -5 10 -11 10 -5 0
-7 -4 -4 -10z"/>
<path d="M18579 15903 c-13 -16 -12 -17 4 -4 9 7 17 15 17 17 0 8 -8 3 -21
-13z"/>
<path d="M4770 15891 c0 -6 4 -13 10 -16 6 -3 7 1 4 9 -7 18 -14 21 -14 7z"/>
<path d="M2950 15839 c0 -5 -5 -7 -11 -3 -8 4 -8 0 0 -15 15 -27 16 -26 17 4
1 14 0 25 -2 25 -2 0 -4 -5 -4 -11z"/>
<path d="M18536 15829 c-11 -11 -17 -21 -14 -24 2 -3 13 4 23 15 24 26 16 33
-9 9z"/>
<path d="M16575 15830 c-26 -6 -27 -8 -12 -15 12 -5 31 -2 50 8 35 17 17 21
-38 7z"/>
<path d="M16445 15780 c-16 -11 -25 -20 -20 -20 10 0 64 39 55 40 -3 0 -18 -9
-35 -20z"/>
<path d="M2965 15780 c3 -5 11 -10 16 -10 6 0 7 5 4 10 -3 6 -11 10 -16 10 -6
0 -7 -4 -4 -10z"/>
<path d="M16790 15776 c0 -2 8 -10 18 -17 15 -13 16 -12 3 4 -13 16 -21 21
-21 13z"/>
<path d="M16478 15763 c7 -3 16 -2 19 1 4 3 -2 6 -13 5 -11 0 -14 -3 -6 -6z"/>
<path d="M2995 15750 c3 -5 11 -10 16 -10 6 0 7 5 4 10 -3 6 -11 10 -16 10 -6
0 -7 -4 -4 -10z"/>
<path d="M16369 15738 c-1 -2 -3 -13 -4 -25 -2 -16 2 -20 13 -15 11 4 12 7 4
10 -7 2 -12 8 -12 13 0 6 5 7 12 3 7 -4 8 -3 4 4 -7 11 -14 15 -17 10z"/>
<path d="M3050 15716 c0 -2 7 -7 16 -10 8 -3 12 -2 9 4 -6 10 -25 14 -25 6z"/>
<path d="M16307 15678 c-31 -31 -31 -32 -2 -8 16 14 34 28 40 32 5 5 6 8 2 8
-4 0 -22 -15 -40 -32z"/>
<path d="M4770 15691 c0 -6 4 -13 10 -16 6 -3 7 1 4 9 -7 18 -14 21 -14 7z"/>
<path d="M16852 15665 c6 -14 15 -25 20 -25 5 0 1 11 -8 25 -9 14 -18 25 -20
25 -2 0 2 -11 8 -25z"/>
<path d="M4058 15673 c7 -3 16 -2 19 1 4 3 -2 6 -13 5 -11 0 -14 -3 -6 -6z"/>
<path d="M4173 15673 c9 -2 25 -2 35 0 9 3 1 5 -18 5 -19 0 -27 -2 -17 -5z"/>
<path d="M4258 15663 c12 -2 30 -2 40 0 9 3 -1 5 -23 4 -22 0 -30 -2 -17 -4z"/>
<path d="M3578 15593 c7 -3 16 -2 19 1 4 3 -2 6 -13 5 -11 0 -14 -3 -6 -6z"/>
<path d="M4740 15590 c-8 -5 -11 -12 -7 -16 4 -4 13 -2 19 4 15 15 7 24 -12
12z"/>
<path d="M16913 15540 c2 -8 13 -16 25 -16 12 -1 19 3 16 8 -3 4 -10 5 -16 2
-6 -4 -15 0 -20 7 -8 12 -9 11 -5 -1z"/>
<path d="M16990 15471 c19 -16 37 -27 39 -26 5 5 -52 54 -64 55 -5 0 6 -13 25
-29z"/>
<path d="M17588 15473 c6 -2 18 -2 25 0 6 3 1 5 -13 5 -14 0 -19 -2 -12 -5z"/>
<path d="M18442 15455 c0 -16 2 -22 5 -12 2 9 2 23 0 30 -3 6 -5 -1 -5 -18z"/>
<path d="M17490 15458 c-11 -4 -20 -9 -20 -12 0 -5 82 13 89 20 7 6 -46 1 -69
-8z"/>
<path d="M16142 15425 c0 -16 2 -22 5 -12 2 9 2 23 0 30 -3 6 -5 -1 -5 -18z"/>
<path d="M17390 15419 c0 -5 5 -7 10 -4 6 3 10 8 10 11 0 2 -4 4 -10 4 -5 0
-10 -5 -10 -11z"/>
<path d="M17090 15410 c20 -13 33 -13 25 0 -3 6 -14 10 -23 10 -15 0 -15 -2
-2 -10z"/>
<path d="M17340 15410 c0 -5 4 -10 9 -10 6 0 13 5 16 10 3 6 -1 10 -9 10 -9 0
-16 -4 -16 -10z"/>
<path d="M17819 15388 c21 -24 41 -29 41 -11 0 4 -3 3 -7 0 -3 -4 -18 3 -32
15 l-26 23 24 -27z"/>
<path d="M17198 15393 c7 -3 16 -2 19 1 4 3 -2 6 -13 5 -11 0 -14 -3 -6 -6z"/>
<path d="M17208 15373 c6 -2 18 -2 25 0 6 3 1 5 -13 5 -14 0 -19 -2 -12 -5z"/>
<path d="M17946 15277 c12 -6 33 -20 48 -31 15 -10 29 -16 32 -13 8 7 -67 57
-86 57 -10 0 -8 -4 6 -13z"/>
<path d="M16193 15263 c9 -2 23 -2 30 0 6 3 -1 5 -18 5 -16 0 -22 -2 -12 -5z"/>
<path d="M16284 15261 c5 -8 56 -3 56 5 0 2 -14 4 -31 4 -16 0 -28 -4 -25 -9z"/>
<path d="M18375 15190 c-3 -5 -1 -10 4 -10 6 0 11 5 11 10 0 6 -2 10 -4 10 -3
0 -8 -4 -11 -10z"/>
<path d="M16536 15171 c-7 -10 18 -34 27 -25 7 8 -3 34 -13 34 -5 0 -11 -4
-14 -9z"/>
<path d="M18160 15170 c14 -4 34 -8 45 -8 16 0 15 2 -5 8 -14 4 -34 8 -45 8
-16 0 -15 -2 5 -8z"/>
<path d="M18545 15170 c3 -5 8 -10 11 -10 2 0 4 5 4 10 0 6 -5 10 -11 10 -5 0
-7 -4 -4 -10z"/>
<path d="M18321 15134 c0 -11 3 -14 6 -6 3 7 2 16 -1 19 -3 4 -6 -2 -5 -13z"/>
<path d="M14900 15120 c0 -21 15 -27 25 -10 3 6 1 10 -5 10 -6 0 -8 5 -5 10 3
6 1 10 -4 10 -6 0 -11 -9 -11 -20z"/>
<path d="M16665 15070 c-3 -5 -1 -10 4 -10 6 0 11 5 11 10 0 6 -2 10 -4 10 -3
0 -8 -4 -11 -10z"/>
<path d="M14568 15022 c-21 -21 -38 -45 -37 -53 0 -8 4 -3 10 9 5 13 17 26 28
29 10 2 24 16 30 29 6 13 10 24 8 24 -1 0 -19 -17 -39 -38z"/>
<path d="M16700 15028 c0 -4 4 -8 9 -8 6 0 12 4 15 8 3 5 -1 9 -9 9 -8 0 -15
-4 -15 -9z"/>
<path d="M16913 15023 c-15 -5 -17 -23 -4 -23 5 0 11 7 15 15 3 8 4 15 3 14
-1 0 -8 -3 -14 -6z"/>
<path d="M16954 15015 c8 -8 23 -15 33 -15 13 0 10 4 -11 15 -36 19 -41 19
-22 0z"/>
<path d="M16740 14991 c0 -5 5 -13 10 -16 6 -3 10 -2 10 4 0 5 -4 13 -10 16
-5 3 -10 2 -10 -4z"/>
<path d="M16883 14974 c-3 -8 -1 -25 5 -37 10 -20 11 -18 11 16 1 39 -5 48
-16 21z"/>
<path d="M16912 14970 c0 -14 2 -19 5 -12 2 6 2 18 0 25 -3 6 -5 1 -5 -13z"/>
<path d="M16983 14955 c0 -22 2 -30 4 -17 2 12 2 30 0 40 -3 9 -5 -1 -4 -23z"/>
<path d="M14640 14970 c0 -5 5 -10 11 -10 5 0 7 5 4 10 -3 6 -8 10 -11 10 -2
0 -4 -4 -4 -10z"/>
<path d="M16785 14930 c3 -5 8 -10 11 -10 2 0 4 5 4 10 0 6 -5 10 -11 10 -5 0
-7 -4 -4 -10z"/>
<path d="M16891 14894 c0 -11 3 -14 6 -6 3 7 2 16 -1 19 -3 4 -6 -2 -5 -13z"/>
<path d="M16988 14903 c6 -2 18 -2 25 0 6 3 1 5 -13 5 -14 0 -19 -2 -12 -5z"/>
<path d="M14505 14891 c-3 -5 -1 -12 5 -16 5 -3 10 1 10 9 0 18 -6 21 -15 7z"/>
<path d="M16915 14880 c-3 -5 -1 -10 4 -10 6 0 11 5 11 10 0 6 -2 10 -4 10 -3
0 -8 -4 -11 -10z"/>
<path d="M16940 14870 c-13 -11 -20 -23 -17 -27 4 -3 15 4 26 15 23 27 35 29
22 3 -6 -10 -7 -21 -4 -25 3 -3 -5 -6 -19 -6 -15 0 -29 -6 -32 -12 -5 -10 -7
-10 -12 0 -10 22 -24 13 -24 -18 0 -22 4 -28 15 -23 9 3 22 -2 30 -13 7 -11
17 -16 21 -11 4 4 2 13 -4 19 -18 18 -15 25 13 32 14 4 23 11 20 15 -3 5 2 16
10 24 19 20 19 33 -1 41 -21 8 -18 9 -44 -14z"/>
<path d="M17026 14883 c6 -4 14 -15 17 -23 5 -11 6 -9 4 4 -1 11 -9 21 -17 23
-10 3 -11 2 -4 -4z"/>
<path d="M16826 14863 c-6 -14 -5 -15 5 -6 7 7 10 15 7 18 -3 3 -9 -2 -12 -12z"/>
<path d="M6380 14860 c-10 -6 -12 -26 -7 -89 l6 -82 -32 25 c-18 13 -46 31
-64 40 -78 39 -87 1 -10 -43 59 -33 90 -63 93 -89 2 -9 14 -26 26 -37 13 -11
41 -55 62 -99 40 -81 126 -183 145 -171 29 17 -15 129 -88 229 -23 30 -41 66
-41 80 0 14 -11 36 -25 49 -22 20 -26 35 -32 105 -6 86 -10 96 -33 82z"/>
<path d="M16856 14842 c-12 -24 -14 -37 -6 -51 15 -30 12 -39 -17 -54 l-27
-14 27 0 c15 0 27 5 27 12 0 8 5 15 11 17 9 3 8 11 -2 28 -14 27 -13 51 3 61
6 4 8 13 6 20 -3 9 -11 2 -22 -19z"/>
<path d="M4621 14837 c-51 -14 -72 -38 -55 -64 7 -12 22 -17 40 -16 103 7 133
5 163 -13 17 -10 31 -22 31 -26 0 -17 40 -29 60 -18 50 27 -11 108 -102 135
-60 17 -77 18 -137 2z"/>
<path d="M17026 14825 c4 -8 8 -15 10 -15 2 0 4 7 4 15 0 8 -4 15 -10 15 -5 0
-7 -7 -4 -15z"/>
<path d="M17000 14810 c0 -5 5 -10 11 -10 5 0 7 5 4 10 -3 6 -8 10 -11 10 -2
0 -4 -4 -4 -10z"/>
<path d="M16960 14790 c0 -5 19 -10 43 -9 36 1 38 2 17 9 -36 12 -60 12 -60 0z"/>
<path d="M14570 14751 c24 -20 40 -26 40 -16 0 2 -15 12 -32 20 l-33 16 25
-20z"/>
<path d="M17095 14750 c-19 -8 -19 -9 3 -9 12 -1 22 4 22 9 0 6 -1 10 -2 9 -2
0 -12 -4 -23 -9z"/>
<path d="M17088 14723 c7 -3 16 -2 19 1 4 3 -2 6 -13 5 -11 0 -14 -3 -6 -6z"/>
<path d="M17128 14723 c6 -2 18 -2 25 0 6 3 1 5 -13 5 -14 0 -19 -2 -12 -5z"/>
<path d="M16790 14710 c0 -5 -6 -10 -14 -10 -20 0 -29 -17 -15 -26 8 -5 9 -3
4 6 -6 10 -3 12 13 8 17 -5 22 -2 22 13 0 10 -2 19 -5 19 -3 0 -5 -4 -5 -10z"/>
<path d="M3975 14672 c-87 -40 -150 -125 -143 -193 7 -68 66 -63 81 7 10 49
57 99 114 120 40 16 44 20 41 48 -4 39 -35 45 -93 18z"/>
<path d="M17140 14670 c0 -13 18 -22 24 -11 3 5 -1 11 -9 15 -8 3 -15 1 -15
-4z"/>
<path d="M17180 14670 c0 -5 5 -10 10 -10 6 0 10 5 10 10 0 6 -4 10 -10 10 -5
0 -10 -4 -10 -10z"/>
<path d="M18230 14665 c-9 -10 -9 -15 -1 -15 6 0 11 4 11 9 0 5 8 12 18 14 14
4 14 5 1 6 -9 0 -22 -6 -29 -14z"/>
<path d="M4790 14661 c-74 -23 -127 -71 -161 -146 -30 -64 -23 -86 10 -34 24
39 90 103 98 95 2 -1 -6 -20 -17 -41 -11 -22 -20 -54 -20 -72 0 -30 3 -33 30
-33 36 0 62 -39 41 -63 -17 -21 10 -39 68 -45 54 -5 91 10 131 53 22 24 25 34
23 98 -1 40 -3 93 -3 119 l-1 48 -52 15 c-54 16 -106 18 -147 6z m140 -256
c17 -20 5 -45 -20 -45 -23 0 -35 22 -26 45 7 19 30 19 46 0z"/>
<path d="M16705 14650 c-3 -5 -1 -10 4 -10 6 0 11 5 11 10 0 6 -2 10 -4 10 -3
0 -8 -4 -11 -10z"/>
<path d="M17070 14650 c0 -5 5 -10 10 -10 6 0 10 5 10 10 0 6 -4 10 -10 10 -5
0 -10 -4 -10 -10z"/>
<path d="M18400 14650 c0 -5 5 -10 11 -10 5 0 7 5 4 10 -3 6 -8 10 -11 10 -2
0 -4 -4 -4 -10z"/>
<path d="M17201 14634 c0 -11 3 -14 6 -6 3 7 2 16 -1 19 -3 4 -6 -2 -5 -13z"/>
<path d="M16697 14619 c7 -7 15 -10 18 -7 3 3 -2 9 -12 12 -14 6 -15 5 -6 -5z"/>
<path d="M16637 14597 c-15 -12 -27 -25 -27 -27 0 -3 16 -6 35 -7 33 -3 35 -1
35 27 0 36 -8 37 -43 7z"/>
<path d="M17200 14574 c0 -8 5 -12 10 -9 6 3 10 10 10 16 0 5 -4 9 -10 9 -5 0
-10 -7 -10 -16z"/>
<path d="M16580 14545 c-7 -8 -16 -12 -21 -9 -5 3 -6 -3 -2 -12 4 -10 2 -15
-3 -11 -6 3 -16 2 -24 -4 -12 -7 -12 -9 4 -9 15 0 16 -3 6 -15 -11 -13 -10
-14 4 -9 9 3 16 1 16 -5 0 -6 -5 -11 -11 -11 -5 0 -7 -4 -4 -10 3 -5 17 -10
31 -10 23 0 24 3 24 60 0 33 -2 60 -4 60 -2 0 -9 -7 -16 -15z"/>
<path d="M11535 14512 c-64 -10 -66 -11 -63 -45 l3 -32 72 -6 c82 -8 128 -31
156 -78 14 -23 25 -31 47 -31 70 0 34 103 -54 155 -44 26 -122 44 -161 37z"/>
<path d="M17262 14480 c0 -14 2 -19 5 -12 2 6 2 18 0 25 -3 6 -5 1 -5 -13z"/>
<path d="M17225 14481 c-3 -5 -1 -12 5 -16 5 -3 10 1 10 9 0 18 -6 21 -15 7z"/>
<path d="M17282 14405 c0 -37 2 -43 7 -25 l7 25 6 -30 c4 -16 5 -68 3 -115
l-4 -85 10 70 c9 71 5 140 -10 160 -5 5 -11 19 -14 30 -2 11 -5 -2 -5 -30z"/>
<path d="M3974 14426 c-48 -21 -103 -75 -130 -127 -30 -61 -30 -73 1 -87 36
-16 45 -15 45 6 0 10 12 42 26 70 27 54 76 93 139 108 l29 7 -37 -32 c-40 -36
-62 -93 -51 -136 5 -20 12 -25 35 -25 36 0 60 -40 39 -65 -10 -12 -8 -16 15
-25 119 -45 238 57 206 178 -6 22 -25 54 -43 71 -62 61 -199 89 -274 57z m256
-232 c11 -12 11 -18 -2 -30 -20 -20 -48 -7 -48 22 0 28 30 33 50 8z"/>
<path d="M16550 14416 c0 -8 5 -18 10 -21 6 -3 10 1 10 9 0 8 -4 18 -10 21 -5
3 -10 -1 -10 -9z"/>
<path d="M16620 14366 c0 -20 5 -36 10 -36 6 0 10 13 10 29 0 17 -4 33 -10 36
-6 4 -10 -8 -10 -29z"/>
<path d="M16560 14323 c-3 -23 -2 -39 3 -34 5 5 7 24 5 42 -3 33 -4 33 -8 -8z"/>
<path d="M17330 14336 c0 -9 5 -16 10 -16 6 0 10 4 10 9 0 6 -4 13 -10 16 -5
3 -10 -1 -10 -9z"/>
<path d="M15209 14253 c-54 -28 -102 -83 -97 -111 2 -8 11 -20 20 -26 14 -9
25 -3 60 31 49 47 101 65 164 56 41 -5 43 -4 50 22 10 39 -16 55 -86 55 -42 0
-71 -7 -111 -27z"/>
<path d="M17330 14265 c0 -8 5 -15 10 -15 6 0 10 7 10 15 0 8 -4 15 -10 15 -5
0 -10 -7 -10 -15z"/>
<path d="M11367 14236 c-48 -17 -71 -38 -91 -81 -64 -133 73 -276 207 -217 24
11 54 34 66 51 25 35 43 119 23 107 -6 -4 -21 -2 -32 4 -22 12 -28 58 -9 77
38 38 -93 85 -164 59z m119 -238 c8 -27 -22 -54 -43 -37 -14 12 -18 41 -6 52
14 15 42 6 49 -15z"/>
<path d="M17276 14232 c-2 -4 -1 -14 5 -22 7 -12 9 -10 9 8 0 23 -5 28 -14 14z"/>
<path d="M15935 14206 c-20 -14 -17 -45 5 -56 8 -5 34 -13 56 -19 49 -13 101
-62 112 -106 7 -25 13 -30 38 -30 24 0 30 5 32 27 4 36 -31 102 -70 131 -70
53 -143 75 -173 53z"/>
<path d="M17202 14180 c0 -14 2 -19 5 -12 2 6 2 18 0 25 -3 6 -5 1 -5 -13z"/>
<path d="M16546 14161 c3 -14 1 -26 -5 -31 -8 -4 -9 -15 -3 -30 8 -23 9 -22
16 13 4 22 2 44 -4 55 -9 14 -10 13 -4 -7z"/>
<path d="M17641 14116 c-16 -19 3 -31 26 -16 16 9 15 10 -4 5 -13 -4 -23 -4
-23 0 0 3 10 10 23 15 15 6 17 9 6 9 -9 1 -22 -5 -28 -13z"/>
<path d="M17690 14110 c0 -5 4 -10 9 -10 6 0 13 5 16 10 3 6 -1 10 -9 10 -9 0
-16 -4 -16 -10z"/>
<path d="M17781 14107 c2 -1 12 -9 22 -16 15 -12 17 -12 11 3 -3 9 -13 16 -22
16 -8 0 -13 -1 -11 -3z"/>
<path d="M17580 14070 c-9 -6 -10 -10 -3 -10 6 0 15 5 18 10 8 12 4 12 -15 0z"/>
<path d="M17814 14059 c-10 -12 -18 -23 -16 -25 5 -9 1 -25 -5 -21 -5 3 -15
-2 -23 -11 -13 -14 -12 -15 4 -9 10 4 22 7 27 7 5 0 9 7 9 15 0 8 6 14 13 13
7 -2 12 8 13 25 1 32 2 32 -22 6z m13 -14 c0 -8 -4 -12 -9 -9 -5 3 -6 10 -3
15 9 13 12 11 12 -6z"/>
<path d="M17240 14021 c0 -11 4 -22 9 -25 4 -3 6 6 3 19 -5 30 -12 33 -12 6z"/>
<path d="M16546 13985 c4 -8 10 -15 15 -15 4 0 6 7 3 15 -4 8 -10 15 -15 15
-4 0 -6 -7 -3 -15z"/>
<path d="M17390 13990 c8 -5 20 -10 25 -10 6 0 3 5 -5 10 -8 5 -19 10 -25 10
-5 0 -3 -5 5 -10z"/>
<path d="M17729 13979 c-15 -9 -15 -9 19 -13 12 -2 22 1 22 5 0 12 -26 18 -41
8z"/>
<path d="M15110 13948 c-137 -73 -109 -266 44 -302 40 -10 120 19 150 55 29
34 48 93 40 124 -3 13 -14 21 -31 23 -40 3 -56 21 -50 58 7 40 -6 52 -64 60
-35 4 -53 1 -89 -18z m154 -204 c20 -8 21 -38 0 -54 -13 -11 -18 -10 -35 6
-33 33 -9 65 35 48z"/>
<path d="M16501 13958 c0 -7 4 -22 9 -33 7 -17 9 -15 9 13 1 17 -3 32 -9 32
-5 0 -10 -6 -9 -12z"/>
<path d="M17685 13940 c-3 -5 -5 -10 -3 -11 33 -8 38 -7 27 7 -14 17 -16 17
-24 4z"/>
<path d="M17708 13903 c7 -3 16 -2 19 1 4 3 -2 6 -13 5 -11 0 -14 -3 -6 -6z"/>
<path d="M4547 13863 c-99 -76 -144 -187 -98 -245 26 -32 70 -43 115 -28 54
18 61 32 46 95 -12 48 -11 63 3 115 10 33 17 67 17 75 0 24 -43 18 -83 -12z"/>
<path d="M17810 13880 c20 -13 33 -13 25 0 -3 6 -14 10 -23 10 -15 0 -15 -2
-2 -10z"/>
<path d="M17880 13870 c0 -5 5 -10 11 -10 5 0 7 5 4 10 -3 6 -8 10 -11 10 -2
0 -4 -4 -4 -10z"/>
<path d="M15840 13863 c-58 -11 -120 -92 -120 -155 0 -69 59 -140 133 -159 88
-24 187 53 190 148 2 46 1 47 -28 50 -39 3 -58 29 -50 70 5 30 4 32 -32 42
-39 11 -50 12 -93 4z m136 -249 c1 -22 -4 -31 -15 -31 -25 0 -41 17 -41 44 0
21 4 24 28 21 23 -2 27 -8 28 -34z"/>
<path d="M17917 13849 c7 -7 15 -10 18 -7 3 3 -2 9 -12 12 -14 6 -15 5 -6 -5z"/>
<path d="M17256 13837 c3 -10 9 -15 12 -12 3 3 0 11 -7 18 -10 9 -11 8 -5 -6z"/>
<path d="M935 13831 c-3 -5 2 -27 10 -49 12 -30 21 -39 38 -38 12 1 28 -5 35
-14 10 -12 10 -10 3 11 -5 15 -8 29 -5 32 6 6 -52 67 -64 67 -6 0 -13 -4 -17
-9z m55 -73 c0 -6 -6 -5 -15 2 -8 7 -15 14 -15 16 0 2 7 1 15 -2 8 -4 15 -11
15 -16z"/>
<path d="M16520 13820 c0 -5 5 -10 10 -10 6 0 10 5 10 10 0 6 -4 10 -10 10 -5
0 -10 -4 -10 -10z"/>
<path d="M18036 13815 c25 -19 40 -19 24 0 -7 8 -20 15 -28 15 -13 0 -12 -3 4
-15z"/>
<path d="M18090 13796 c0 -2 7 -6 15 -10 8 -3 15 -1 15 4 0 6 -7 10 -15 10 -8
0 -15 -2 -15 -4z"/>
<path d="M10705 13767 c-14 -11 -12 -18 23 -73 40 -61 90 -108 151 -139 50
-25 142 -16 223 23 81 38 210 130 205 145 -7 23 -48 18 -124 -16 -99 -45 -145
-57 -211 -57 -68 0 -110 18 -169 73 -56 51 -75 60 -98 44z"/>
<path d="M17200 13750 c0 -5 5 -10 11 -10 7 0 8 -7 4 -17 -12 -29 -16 -80 -6
-64 5 8 7 20 4 28 -3 7 2 15 10 19 13 5 14 10 5 30 -11 24 -28 33 -28 14z"/>
<path d="M18227 13729 c7 -7 15 -10 18 -7 3 3 -2 9 -12 12 -14 6 -15 5 -6 -5z"/>
<path d="M1427 13689 c7 -7 15 -10 18 -7 3 3 -2 9 -12 12 -14 6 -15 5 -6 -5z"/>
<path d="M16500 13675 c1 -26 2 -28 11 -12 8 14 8 22 0 30 -8 8 -11 3 -11 -18z"/>
<path d="M18291 13697 c2 -1 13 -9 24 -17 19 -14 19 -14 6 3 -7 9 -18 17 -24
17 -6 0 -8 -1 -6 -3z"/>
<path d="M16525 13669 c-11 -17 1 -21 15 -4 8 9 8 15 2 15 -6 0 -14 -5 -17
-11z"/>
<path d="M16647 13673 c-12 -12 -7 -23 11 -23 13 0 14 2 3 9 -11 7 -11 9 0 14
8 3 9 6 3 6 -6 1 -14 -2 -17 -6z"/>
<path d="M16765 13673 c17 -2 34 -9 40 -14 13 -13 25 -11 25 4 0 8 -17 12 -48
13 -26 1 -34 0 -17 -3z"/>
<path d="M16842 13660 c2 -25 15 -50 27 -50 4 0 7 16 8 36 0 25 -2 32 -8 23
-8 -12 -11 -12 -19 1 -7 11 -9 9 -8 -10z m28 -20 c0 -5 -2 -10 -4 -10 -3 0 -8
5 -11 10 -3 6 -1 10 4 10 6 0 11 -4 11 -10z"/>
<path d="M16534 13643 c-26 -5 -22 -39 6 -46 20 -5 28 -1 49 26 12 16 12 17
-5 10 -10 -3 -23 -11 -27 -17 -5 -7 -7 -2 -4 12 3 12 4 21 4 21 -1 -1 -12 -4
-23 -6z"/>
<path d="M17161 13641 c-9 -6 -11 -15 -6 -27 5 -11 7 -25 6 -33 -1 -7 2 -10 9
-6 7 4 10 15 7 25 -3 11 2 21 10 24 8 3 11 10 8 16 -8 12 -16 12 -34 1z"/>
<path d="M16598 13612 c-17 -20 -31 -28 -49 -25 -18 2 -20 1 -9 -6 8 -5 18 -7
22 -5 4 3 8 0 8 -6 0 -7 5 -6 13 2 49 55 59 68 50 68 -6 0 -22 -13 -35 -28z"/>
<path d="M18410 13626 c0 -2 7 -7 16 -10 8 -3 12 -2 9 4 -6 10 -25 14 -25 6z"/>
<path d="M16908 13593 c0 -16 -2 -40 -3 -55 -1 -15 6 -33 17 -42 21 -19 23
-11 4 23 -8 15 -12 40 -8 63 2 21 2 38 -2 38 -3 0 -7 -12 -8 -27z"/>
<path d="M17120 13610 c0 -5 5 -10 10 -10 6 0 10 5 10 10 0 6 -4 10 -10 10 -5
0 -10 -4 -10 -10z"/>
<path d="M18483 13583 c0 -9 6 -9 21 -1 30 15 30 16 3 14 -13 0 -24 -6 -24
-13z"/>
<path d="M17130 13541 c0 -11 -5 -21 -12 -23 -8 -3 -8 -7 -2 -11 6 -3 18 7 28
24 15 25 15 29 2 29 -9 0 -16 -8 -16 -19z"/>
<path d="M17080 13512 c0 -6 5 -14 10 -17 7 -4 6 -14 -2 -28 -10 -20 -10 -21
5 -8 21 17 22 35 2 51 -9 8 -15 9 -15 2z"/>
<path d="M18584 13508 c-4 -7 -4 -10 1 -6 4 4 15 2 24 -5 14 -11 14 -10 2 6
-16 20 -18 21 -27 5z"/>
<path d="M18650 13472 c0 -5 7 -13 16 -16 10 -4 14 -1 12 6 -5 15 -28 23 -28
10z"/>
<path d="M16901 13439 c-14 -40 3 -61 36 -46 28 13 31 47 4 47 -11 0 -21 -6
-24 -12 -2 -7 -2 -1 0 15 6 36 -2 34 -16 -4z"/>
<path d="M18706 13428 c3 -5 10 -6 15 -3 13 9 11 12 -6 12 -8 0 -12 -4 -9 -9z"/>
<path d="M15280 13398 c0 -14 51 -150 68 -183 80 -154 234 -177 348 -53 37 40
94 141 109 195 l6 21 -63 -19 c-35 -10 -91 -24 -125 -30 -60 -10 -63 -13 -63
-39 0 -47 -8 -57 -40 -52 -28 4 -30 8 -31 46 l-1 41 -15 -37 c-14 -34 -17 -36
-39 -26 -19 9 -24 19 -24 47 0 34 -3 37 -57 61 -74 33 -73 32 -73 28z"/>
<path d="M16830 13346 c-6 -6 -5 -16 1 -28 10 -18 8 -19 -13 -14 -12 3 -17 3
-10 0 10 -5 9 -9 -5 -19 -10 -7 -15 -16 -12 -20 4 -3 14 1 22 10 17 16 42 21
33 6 -3 -5 2 -12 11 -15 16 -7 63 28 63 47 0 5 -9 -1 -20 -14 -14 -18 -19 -20
-20 -8 0 8 5 20 12 27 9 9 6 10 -12 7 -28 -5 -58 9 -41 19 6 4 11 2 11 -3 0
-15 17 -14 23 2 6 15 -28 18 -43 3z"/>
<path d="M16900 13350 c0 -5 5 -10 11 -10 5 0 7 5 4 10 -3 6 -8 10 -11 10 -2
0 -4 -4 -4 -10z"/>
<path d="M16960 13345 c-14 -8 -20 -14 -14 -15 5 0 19 7 30 15 24 18 16 19
-16 0z"/>
<path d="M19008 13343 c7 -3 16 -2 19 1 4 3 -2 6 -13 5 -11 0 -14 -3 -6 -6z"/>
<path d="M18998 13323 c6 -2 18 -2 25 0 6 3 1 5 -13 5 -14 0 -19 -2 -12 -5z"/>
<path d="M16741 13309 c-13 -5 -21 -12 -18 -15 3 -3 18 1 34 10 31 17 21 20
-16 5z"/>
<path d="M18974 13305 c22 -17 40 -20 32 -6 -3 5 -16 11 -28 14 -22 6 -22 5
-4 -8z"/>
<path d="M16750 13265 c0 -14 4 -25 9 -25 4 0 6 11 3 25 -2 14 -6 25 -8 25 -2
0 -4 -11 -4 -25z"/>
<path d="M19765 13260 c27 -12 43 -12 25 0 -8 5 -22 9 -30 9 -10 0 -8 -3 5 -9z"/>
<path d="M19828 13263 c7 -3 16 -2 19 1 4 3 -2 6 -13 5 -11 0 -14 -3 -6 -6z"/>
<path d="M16720 13242 c6 -13 14 -21 18 -18 3 4 -2 14 -12 24 -18 16 -18 16
-6 -6z"/>
<path d="M16828 13253 c7 -3 16 -2 19 1 4 3 -2 6 -13 5 -11 0 -14 -3 -6 -6z"/>
<path d="M16781 13234 c0 -11 3 -14 6 -6 3 7 2 16 -1 19 -3 4 -6 -2 -5 -13z"/>
<path d="M19295 13230 c11 -5 34 -8 50 -8 l30 0 -30 8 c-16 4 -39 8 -50 8
l-20 1 20 -9z"/>
<path d="M19653 13233 c9 -2 23 -2 30 0 6 3 -1 5 -18 5 -16 0 -22 -2 -12 -5z"/>
<path d="M19453 13223 c9 -2 25 -2 35 0 9 3 1 5 -18 5 -19 0 -27 -2 -17 -5z"/>
<path d="M3308 11814 c-43 -18 -39 -5 -119 -407 -51 -262 -75 -336 -117 -363
-59 -39 -235 -26 -380 28 -29 11 -56 18 -59 15 -3 -3 -19 -79 -35 -168 l-31
-163 29 -23 c41 -32 198 -118 272 -148 159 -65 343 -72 501 -19 140 46 314
164 381 256 16 21 30 35 33 31 2 -4 26 -89 53 -188 78 -290 71 -346 -103 -855
-2 -8 7 4 22 28 14 23 29 42 33 42 4 0 80 -30 171 -67 l163 -67 30 35 c54 64
169 244 208 324 21 44 47 111 59 149 52 168 50 500 -5 1036 -20 201 -20 200
-54 200 -33 0 -43 10 -68 75 -25 65 -44 64 -57 -2 -11 -59 -39 -95 -69 -91
-21 3 -36 28 -72 116 -9 23 -23 42 -29 42 -7 0 -22 -27 -34 -60 -21 -57 -24
-60 -55 -60 -39 0 -51 12 -76 77 -10 26 -24 48 -30 48 -7 0 -19 -18 -26 -39
-17 -48 -31 -66 -54 -66 -26 0 -42 25 -54 88 -15 73 -34 78 -75 19 -35 -51
-51 -60 -86 -47 -27 10 -33 29 -37 104 -2 27 -8 51 -15 53 -6 2 -34 -16 -62
-41 -87 -78 -136 -54 -106 50 15 51 14 75 -3 73 -4 0 -24 -7 -44 -15z"/>
<path d="M11630 11490 c-250 -27 -456 -49 -456 -49 -8 -5 -386 -412 -428 -461
-31 -36 -68 -88 -82 -116 -36 -74 -80 -235 -108 -397 -36 -207 -36 -207 -14
-220 40 -26 17 -30 -56 -10 -17 5 -18 -1 -11 -106 6 -97 5 -111 -8 -111 -12 0
-17 13 -19 57 -2 31 -7 58 -13 60 -6 2 -9 -18 -7 -52 3 -45 1 -55 -12 -55 -12
0 -16 11 -16 49 0 27 -6 53 -13 59 -10 8 -12 -1 -12 -45 0 -36 -4 -58 -12 -60
-10 -3 -13 11 -13 51 0 46 -4 57 -21 67 -31 16 -99 3 -153 -31 -63 -40 -141
-166 -91 -146 8 3 58 -23 117 -63 224 -148 371 -221 447 -221 37 0 49 5 78 36
35 38 66 91 88 155 13 37 13 39 -13 60 -22 17 -35 20 -77 15 -41 -5 -60 -2
-103 19 l-53 25 6 72 c4 40 10 87 14 105 l6 31 140 -103 140 -102 18 81 c32
143 77 289 113 364 42 87 61 102 267 214 l142 78 7 -213 c8 -284 28 -402 96
-571 60 -151 153 -309 269 -459 46 -60 65 -95 53 -102 -5 -3 -21 12 -35 35
-14 22 -32 40 -41 40 -11 0 -9 -8 10 -33 15 -19 26 -39 26 -45 0 -23 -19 -12
-40 23 -12 19 -28 35 -36 35 -11 0 -8 -9 10 -33 15 -19 26 -39 26 -45 0 -23
-21 -11 -41 23 -15 25 -28 35 -47 35 -34 0 -94 -64 -110 -117 -21 -69 -13
-151 12 -126 4 4 84 6 179 4 238 -4 367 16 405 61 18 23 25 119 13 180 -10 47
-16 57 -36 60 -24 5 -40 -1 -87 -35 -14 -10 -47 -20 -74 -23 l-49 -6 -33 67
c-18 37 -32 68 -30 70 2 1 75 21 163 44 88 23 166 44 172 46 9 3 -10 40 -52
104 -140 213 -191 340 -189 471 1 74 10 115 69 315 90 305 121 427 145 563 23
129 27 332 8 393 -14 49 32 50 -548 -11z"/>
<path d="M2275 11251 c-59 -26 -196 -133 -238 -185 -80 -96 -114 -213 -75
-252 20 -20 30 -18 160 36 l76 32 -5 34 c-8 47 29 79 154 133 55 24 113 53
129 66 l29 23 -30 43 c-34 48 -96 89 -135 89 -14 0 -43 -9 -65 -19z"/>
<path d="M16060 11124 c-245 -23 -484 -45 -533 -48 -98 -7 -148 -27 -309 -129
-167 -106 -283 -212 -322 -296 -38 -83 -26 -285 36 -562 l21 -97 168 -80 169
-81 0 222 c0 234 16 389 44 431 18 28 18 28 273 56 100 11 189 23 196 26 11 4
15 -26 21 -158 12 -283 46 -452 109 -543 27 -40 61 -65 217 -159 102 -61 238
-144 304 -184 65 -40 119 -72 121 -70 1 2 32 57 69 123 38 66 77 134 88 152
l19 32 -93 98 c-51 54 -150 157 -220 228 -71 72 -128 139 -128 149 0 10 25 84
56 164 138 364 201 568 219 716 l7 56 -43 -1 c-24 -1 -244 -21 -489 -45z"/>
<path d="M5225 10978 c-24 -105 -37 -167 -40 -192 -2 -16 -10 -33 -17 -37 -7
-5 -9 -9 -4 -9 4 0 25 14 46 30 48 38 64 39 22 2 -18 -16 -32 -32 -32 -36 0
-4 7 0 16 8 17 17 34 21 34 8 0 -9 42 -8 70 0 8 3 12 3 7 1 -4 -3 -4 -9 -1
-15 3 -5 14 -2 26 9 21 18 21 18 8 -7 -12 -24 -12 -24 6 -9 37 31 47 34 34 9
-11 -21 -11 -21 14 -5 13 9 23 22 20 30 -3 7 -1 15 3 18 11 7 11 -34 0 -50 -5
-8 -4 -13 2 -13 5 0 13 4 16 10 3 5 16 15 28 21 20 11 20 10 -3 -16 l-25 -27
38 22 c20 12 37 18 37 12 0 -5 -7 -13 -16 -16 -9 -4 -14 -9 -11 -13 4 -3 13 0
22 7 14 12 14 45 -1 125 -9 49 -35 125 -43 125 -4 0 -42 -36 -86 -80 -78 -80
-94 -86 -95 -37 0 20 -56 147 -64 147 -3 0 -8 -10 -11 -22z m100 -198 c-3 -5
-16 -15 -28 -21 -19 -9 -19 -8 3 10 28 23 34 26 25 11z m159 -5 c-4 -8 -11
-15 -16 -15 -6 0 -5 6 2 15 7 8 14 15 16 15 2 0 1 -7 -2 -15z"/>
<path d="M5015 10909 c-4 -6 0 -30 10 -54 12 -34 20 -42 33 -38 15 6 15 5 3
-10 -11 -15 -11 -17 2 -17 8 0 20 7 27 15 14 17 35 21 25 5 -3 -5 -1 -10 6
-10 7 0 0 -14 -17 -31 l-29 -31 40 23 c31 18 37 19 26 6 -8 -10 -12 -20 -9
-22 3 -3 10 1 17 9 16 19 -26 115 -64 144 -30 24 -60 28 -70 11z"/>
<path d="M5090 10790 c-8 -5 -12 -11 -9 -14 2 -3 11 -1 19 4 8 5 12 11 9 14
-2 3 -11 1 -19 -4z"/>
<path d="M5690 10735 c-23 -17 -29 -25 -17 -25 20 0 23 -16 5 -23 -7 -3 -8 -6
-3 -6 6 0 17 4 25 9 13 9 13 11 0 19 -8 6 -11 13 -7 18 5 4 12 2 16 -5 5 -8
15 -10 27 -5 18 7 18 6 2 -11 -10 -9 -18 -19 -18 -21 0 -7 30 7 31 14 0 3 3
18 5 34 6 35 -17 36 -66 2z"/>
<path d="M5635 10690 c-3 -6 1 -7 9 -4 18 7 21 14 7 14 -6 0 -13 -4 -16 -10z"/>
<path d="M13011 10334 c-36 -144 -51 -238 -39 -246 15 -9 26 -11 52 -8 12 1
16 -3 11 -10 -6 -9 -2 -9 13 -1 24 13 35 14 28 3 -2 -4 17 -7 42 -6 26 1 54
-2 62 -6 9 -5 18 -2 26 8 10 14 15 13 53 -6 42 -22 80 -31 51 -12 -12 8 -11
10 7 10 12 0 25 -4 28 -10 22 -35 45 42 34 112 -11 68 -47 188 -57 188 -4 0
-48 -40 -96 -90 -49 -49 -92 -90 -96 -90 -3 0 -24 46 -46 102 -21 56 -44 103
-50 105 -6 2 -17 -17 -23 -43z m144 -255 c-16 -4 -33 -5 -37 -1 -4 4 10 8 30
9 37 1 37 1 7 -8z"/>
<path d="M12767 10283 c-13 -12 -7 -39 23 -100 32 -65 45 -80 54 -64 4 6 15 5
29 -2 42 -23 49 -29 39 -36 -6 -4 -4 -12 6 -21 14 -13 15 -12 9 3 -3 9 -2 17
3 17 6 0 10 5 10 11 0 5 -4 7 -10 4 -5 -3 -10 -2 -10 4 0 5 4 11 9 13 15 5
-45 120 -79 151 -28 25 -68 35 -83 20z m153 -163 c0 -5 -5 -10 -11 -10 -5 0
-7 5 -4 10 3 6 8 10 11 10 2 0 4 -4 4 -10z"/>
<path d="M12846 10103 c-3 -8 -6 -16 -6 -17 0 -1 11 -2 25 -2 14 0 25 0 25 1
0 0 -9 8 -19 17 -17 14 -20 15 -25 1z"/>
<path d="M13583 10074 c-46 -27 -55 -40 -23 -31 11 3 23 1 26 -5 3 -5 15 -8
25 -5 10 3 20 0 22 -7 3 -6 8 1 12 16 7 29 1 58 -12 58 -4 0 -27 -12 -50 -26z"/>
<path d="M13210 10060 c0 -5 5 -10 10 -10 6 0 10 5 10 10 0 6 -4 10 -10 10 -5
0 -10 -4 -10 -10z"/>
<path d="M13247 10039 c7 -7 15 -10 18 -7 3 3 -2 9 -12 12 -14 6 -15 5 -6 -5z"/>
<path d="M14900 9914 c0 -9 7 -47 16 -84 17 -67 14 -107 -6 -95 -5 3 -10 21
-10 39 0 18 -7 41 -15 52 -13 17 -14 14 -8 -33 5 -45 3 -53 -11 -53 -12 0 -16
10 -16 39 0 23 -7 46 -16 55 -21 22 -27 20 -14 -3 13 -25 13 -88 0 -96 -5 -3
-12 17 -16 45 -8 62 -27 75 -84 60 -46 -12 -91 -48 -131 -104 -27 -37 -41 -94
-19 -81 5 3 83 -30 172 -74 249 -123 381 -158 427 -112 25 25 68 117 80 169 8
39 7 44 -14 58 -17 11 -38 13 -87 8 -51 -5 -73 -3 -101 11 l-37 17 0 99 0 99
-55 0 c-44 0 -55 -3 -55 -16z"/>
<path d="M16846 9678 c-12 -27 -12 -38 0 -71 14 -39 12 -67 -8 -119 -9 -25
-14 -27 -96 -33 -48 -3 -93 -8 -99 -10 -8 -3 -13 -23 -13 -55 l0 -50 34 0 c18
0 49 6 67 14 60 24 99 30 99 13 0 -10 -14 -18 -39 -22 -22 -4 -46 -14 -53 -22
-11 -14 -10 -15 7 -10 61 17 85 18 85 4 0 -9 -14 -17 -39 -21 -21 -3 -45 -13
-52 -23 -12 -15 -12 -16 4 -10 10 4 37 10 59 14 32 5 40 3 36 -8 -3 -8 -21
-17 -42 -20 -21 -3 -45 -13 -53 -22 -38 -37 35 -155 121 -196 55 -27 79 -28
71 -2 -4 12 6 43 23 78 36 72 104 256 127 343 20 75 21 139 5 170 -13 24 -77
56 -155 76 -70 19 -74 18 -89 -18z"/>
<path d="M3593 9579 c-19 -29 -28 -57 -31 -99 -4 -54 -2 -60 29 -94 44 -47
182 -129 267 -158 53 -18 88 -23 170 -23 97 0 105 2 123 24 10 13 19 31 19 40
0 9 -37 54 -83 99 -83 82 -83 83 -102 62 -10 -11 -28 -20 -40 -20 -41 0 -121
50 -208 130 -48 44 -94 80 -102 80 -8 0 -27 -18 -42 -41z"/>
<path d="M8942 9519 c-40 -5 -103 -19 -140 -32 -63 -22 -74 -23 -148 -13 -43
6 -128 10 -189 10 -91 0 -126 -5 -205 -28 -179 -53 -313 -135 -429 -263 -197
-217 -344 -546 -428 -953 -28 -135 -23 -389 11 -610 37 -237 56 -394 56 -455
0 -27 -14 -135 -31 -240 -39 -235 -46 -463 -16 -557 22 -71 68 -133 131 -176
75 -50 144 -67 271 -66 l110 0 -3 -72 -3 -72 30 -4 c17 -2 63 0 103 4 99 13
332 4 452 -16 55 -9 101 -14 103 -12 5 5 -15 267 -34 441 -9 83 -24 173 -34
200 -24 65 -86 136 -152 174 -43 25 -49 31 -32 36 51 16 143 63 180 91 33 24
56 33 106 38 167 18 159 16 161 42 0 13 1 29 2 35 1 7 -39 20 -94 31 -130 26
-284 78 -411 139 -98 47 -107 54 -117 88 -49 166 -41 510 18 718 58 209 177
372 376 519 44 33 175 108 292 168 199 101 235 125 267 181 9 15 13 16 25 4
104 -101 303 -243 427 -305 l83 -42 -38 -6 c-50 -9 -139 -53 -146 -72 -7 -18
8 -49 27 -57 7 -3 36 6 63 19 61 30 126 31 179 4 53 -28 85 -20 85 20 0 34
-36 62 -102 81 -21 5 -38 16 -38 23 0 16 44 144 53 152 9 9 93 -125 132 -210
39 -85 79 -209 93 -285 l10 -53 -34 5 c-23 4 -50 23 -88 60 -63 64 -129 91
-221 92 -69 0 -138 -33 -174 -84 -26 -36 -27 -50 -3 -28 30 27 89 47 138 47
84 0 124 -19 197 -92 63 -63 71 -68 110 -68 24 0 48 5 55 12 6 6 15 8 19 4 14
-13 15 -152 3 -243 -45 -346 -200 -578 -475 -714 -95 -46 -266 -99 -324 -99
-46 0 -52 -11 -49 -85 l3 -68 40 -14 c21 -7 49 -22 60 -33 12 -11 29 -20 37
-20 25 0 75 -47 104 -96 52 -89 118 -353 139 -555 l7 -67 30 27 c16 14 40 36
53 49 13 12 28 22 32 22 13 0 107 100 140 150 47 71 104 190 97 202 -4 7 -3 8
4 4 7 -4 12 -1 12 6 0 13 -36 38 -103 70 -30 15 -36 22 -28 36 5 9 23 59 40
111 56 165 131 297 255 451 161 200 214 368 203 645 -9 223 -75 444 -168 566
-29 38 -46 82 -93 249 -102 360 -172 508 -302 638 -90 90 -188 139 -344 171
-192 38 -293 46 -428 30z"/>
<path d="M13827 9395 c-173 -143 -259 -334 -243 -541 13 -174 103 -421 189
-518 l32 -36 65 21 c47 16 93 22 167 23 l103 1 6 35 c41 247 113 367 333 552
l43 37 -43 20 c-24 12 -66 39 -94 61 -88 70 -81 70 -184 1 -50 -34 -91 -59
-91 -55 0 3 27 44 61 90 64 89 66 98 28 144 l-21 25 -90 -48 -90 -49 28 49
c15 26 34 57 41 68 7 11 13 24 13 30 0 8 -172 145 -183 145 -2 0 -33 -25 -70
-55z"/>
<path d="M8677 8495 c-88 -33 -134 -90 -101 -126 23 -26 38 -24 76 10 55 48
137 58 219 26 20 -8 49 19 49 46 0 48 -155 76 -243 44z"/>
<path d="M11926 8318 c-2 -7 -8 -48 -14 -91 -8 -65 -14 -80 -36 -98 -15 -12
-26 -29 -24 -38 1 -9 -19 -45 -46 -81 -84 -113 -122 -210 -85 -218 31 -6 143
135 169 213 7 22 19 35 35 39 17 4 27 16 33 39 6 25 22 41 78 75 69 42 93 72
57 72 -16 0 -58 -22 -139 -73 -8 -5 -9 8 -2 44 11 63 7 121 -9 127 -7 2 -15
-2 -17 -10z"/>
<path d="M8706 8242 c-33 -11 -71 -36 -113 -75 -53 -50 -70 -60 -108 -65 -25
-2 -45 -8 -45 -13 0 -16 75 -59 102 -59 29 0 78 19 78 30 0 3 16 25 35 47 74
86 206 112 301 59 26 -14 49 -24 52 -21 3 3 -15 24 -39 48 -70 67 -160 84
-263 49z"/>
<path d="M13910 8203 c-389 -42 -753 -255 -1004 -588 -54 -72 -104 -180 -121
-263 -14 -67 -21 -80 -93 -166 -92 -111 -153 -216 -200 -340 -112 -298 -104
-642 22 -952 72 -175 167 -310 375 -527 78 -81 165 -180 195 -221 30 -40 69
-85 87 -100 70 -59 177 -96 279 -96 59 0 71 13 28 31 -47 19 -129 107 -163
174 -27 55 -30 69 -30 161 l0 101 -54 59 c-217 237 -336 599 -303 926 12 117
35 223 71 318 l21 56 39 -4 c70 -7 152 40 301 169 51 45 76 59 118 68 161 34
403 -21 489 -111 31 -33 97 -138 87 -138 -3 0 -19 9 -35 20 -45 33 -127 46
-190 32 -106 -24 -163 -76 -129 -118 17 -19 40 -18 91 6 63 28 132 26 186 -6
42 -24 46 -25 69 -10 13 9 24 23 24 31 0 12 7 11 37 -5 48 -25 172 -27 276 -4
99 22 109 30 49 38 -67 9 -164 59 -196 101 -31 40 -56 105 -56 144 0 42 -18
96 -46 136 -21 31 -22 36 -7 31 41 -15 130 -75 216 -145 123 -98 151 -110 294
-120 140 -10 165 -19 215 -73 35 -38 38 -40 55 -23 43 43 142 58 206 31 39
-17 92 -71 106 -109 26 -68 4 -164 -48 -211 -12 -11 -37 -22 -57 -25 l-35 -6
43 -44 c24 -23 59 -51 78 -61 35 -18 36 -18 95 9 117 54 201 162 251 326 26
85 28 102 28 285 0 170 -2 205 -22 276 -47 175 -120 296 -266 439 -120 119
-244 204 -421 290 -348 169 -670 239 -955 208z"/>
<path d="M9643 8110 c-39 -23 -62 -57 -74 -107 -12 -54 -5 -70 30 -65 38 5 52
-29 25 -59 -22 -24 -11 -37 42 -49 31 -7 47 -5 81 11 98 47 123 179 47 254
-29 29 -42 35 -77 35 -24 0 -56 -8 -74 -20z"/>
<path d="M8852 8059 c-41 -27 -72 -86 -72 -138 0 -38 1 -39 32 -37 38 1 49
-25 23 -54 -16 -17 -15 -19 9 -35 84 -55 205 29 206 143 0 115 -106 179 -198
121z"/>
<path d="M8969 7461 c75 -89 148 -131 230 -131 49 0 135 44 166 84 27 36 33
61 11 53 -48 -19 -109 -17 -226 6 -69 14 -147 28 -175 33 l-49 7 43 -52z"/>
<path d="M14055 6634 c-53 -20 -119 -85 -147 -148 -35 -79 -33 -199 6 -286 52
-115 117 -164 205 -156 60 5 93 18 126 52 56 56 71 144 36 212 -23 46 -60 80
-69 66 -27 -41 -87 -32 -105 16 -9 25 -15 28 -37 23 -42 -10 -76 -31 -104 -63
-21 -26 -26 -28 -26 -13 0 11 12 44 28 73 21 43 38 60 79 83 69 38 150 46 223
22 60 -20 70 -14 70 43 0 24 -9 42 -29 63 -28 28 -33 29 -123 28 -55 0 -109
-6 -133 -15z m213 -425 c16 -26 1 -49 -33 -49 -29 0 -48 24 -40 50 9 27 56 27
73 -1z"/>
<path d="M13094 6250 c-79 -56 -124 -140 -124 -230 0 -33 5 -52 18 -63 43 -39
73 -11 77 68 3 62 33 110 96 153 44 31 54 49 40 78 -15 33 -55 31 -107 -6z"/>
<path d="M13263 6089 c-63 -24 -137 -93 -163 -152 -11 -23 -20 -64 -20 -93 0
-67 35 -169 67 -194 34 -26 98 -27 115 -1 11 18 13 18 56 -5 73 -39 148 -28
211 30 63 59 79 143 40 221 -27 53 -54 72 -75 50 -31 -31 -104 -3 -104 40 0
21 -23 19 -67 -6 -77 -43 -95 -69 -104 -154 l-6 -60 -1 65 c-2 108 34 163 143
218 22 11 60 26 84 33 35 10 40 14 25 20 -38 15 -148 8 -201 -12z m293 -306
c-1 -33 -4 -38 -28 -41 -18 -2 -30 3 -37 17 -16 29 -4 49 32 54 18 2 32 5 33
5 1 1 1 -15 0 -35z"/>
<path d="M14325 5850 c-3 -6 -3 -19 0 -30 5 -15 -6 -38 -38 -83 -69 -97 -165
-182 -248 -222 -78 -37 -99 -41 -116 -24 -12 12 -28 -4 -19 -20 10 -16 115
-23 173 -11 111 23 188 80 237 178 41 83 61 222 32 222 -8 0 -18 -5 -21 -10z"/>
<path d="M15460 5765 c-99 -22 -174 -51 -295 -115 -188 -99 -175 -88 -160
-131 29 -82 54 -233 45 -272 -9 -43 -40 -81 -85 -104 -33 -18 -162 -13 -273
11 l-63 13 -28 -56 c-31 -61 -51 -140 -51 -199 l0 -37 285 3 c164 2 285 0 285
-6 0 -5 -27 -28 -61 -53 -33 -24 -55 -45 -49 -47 6 -2 54 4 107 13 111 19 157
14 210 -22 l38 -26 85 17 c174 35 457 98 508 113 52 14 53 15 36 34 -9 10 -70
54 -135 96 -67 43 -119 84 -119 93 1 30 68 178 108 237 43 64 136 154 183 179
29 14 31 14 92 -33 83 -63 210 -192 275 -278 67 -88 149 -253 164 -328 17 -82
1 -139 -56 -193 -35 -35 -61 -48 -152 -77 -60 -19 -170 -49 -246 -66 -131 -30
-542 -102 -661 -117 -53 -6 -60 -10 -81 -43 -13 -20 -40 -56 -59 -81 l-36 -44
87 -46 c145 -75 272 -174 477 -372 l91 -88 29 27 c33 30 505 473 625 587 41
39 156 148 255 241 99 93 208 196 243 230 l63 60 -43 39 c-24 21 -63 58 -88
80 -25 23 -79 71 -120 106 -41 36 -77 67 -80 70 -8 9 -196 159 -270 216 -221
170 -468 298 -689 355 -102 27 -303 34 -391 14z"/>
<path d="M12040 5633 c-19 -15 -77 -60 -127 -101 l-93 -74 1 -221 0 -222 25
55 c21 45 23 58 13 77 -9 17 -8 30 6 65 9 24 19 48 22 54 2 6 -5 14 -16 17
-35 9 -34 31 5 120 36 84 51 102 77 91 13 -6 89 -96 95 -112 3 -11 -21 -38
-39 -44 -7 -2 3 -23 25 -52 20 -26 36 -52 36 -57 0 -4 -11 -16 -25 -25 l-25
-16 36 -40 c54 -60 47 -74 -71 -135 -55 -29 -108 -52 -117 -53 -9 0 -24 10
-32 22 -16 22 -16 22 -16 -15 0 -64 -26 -113 -80 -150 l-24 -17 25 0 c110 0
162 -336 78 -502 -51 -101 -134 -87 -181 30 -19 49 -22 75 -22 187 0 112 3
138 22 187 13 32 33 66 46 75 22 17 18 18 -123 15 -87 -2 -167 1 -199 8 -62
14 -138 70 -166 123 l-20 36 -30 -16 c-17 -9 -78 -55 -136 -102 l-105 -86 345
-5 c266 -4 345 -8 346 -17 1 -7 2 -159 3 -338 1 -307 2 -325 19 -316 9 5 55
41 101 80 68 57 87 68 102 61 10 -6 119 -10 251 -9 l233 0 60 33 c66 36 118
95 135 154 5 21 10 141 10 277 l-1 240 -109 88 c-124 99 -159 117 -245 126
l-60 6 -3 263 c-1 144 -6 262 -10 262 -4 0 -23 -12 -42 -27z"/>
<path d="M11917 5434 c-21 -43 -21 -55 -2 -48 20 8 32 -25 14 -37 -21 -13 -29
-11 -29 9 -1 15 -2 15 -15 -2 -13 -18 -21 -56 -11 -56 2 0 16 7 32 15 15 8 30
13 31 11 2 -2 -10 -33 -27 -70 -30 -67 -38 -102 -20 -91 10 6 15 -10 10 -30
-1 -5 -3 -16 -3 -22 0 -7 -4 -13 -9 -13 -4 0 -8 -9 -8 -19 0 -11 -5 -23 -11
-26 -6 -4 -8 -13 -5 -20 3 -8 0 -15 -6 -17 -6 -2 -8 -10 -4 -16 7 -12 55 -6
66 7 6 7 47 26 73 35 10 3 16 10 13 15 -3 5 4 7 16 4 22 -5 22 -5 4 9 -10 8
-16 20 -12 26 11 19 26 14 36 -10 8 -21 9 -21 9 -3 1 11 -15 38 -34 60 -19 22
-35 43 -35 48 0 4 11 13 25 19 14 6 25 18 25 27 -1 13 -3 12 -11 -3 -9 -15
-13 -16 -20 -5 -5 8 -6 21 -4 30 7 20 -30 63 -45 54 -9 -6 -9 -2 0 14 6 12 22
26 36 31 27 11 30 20 12 38 -14 14 -32 16 -24 3 3 -4 -6 -6 -19 -3 -28 5 -33
20 -10 28 20 8 19 21 -3 33 -16 8 -22 4 -35 -25z m41 -197 c2 -12 -3 -17 -17
-17 -15 0 -21 6 -21 21 0 25 33 22 38 -4z m36 -73 c3 -7 -3 -18 -14 -24 -14
-8 -20 -8 -20 0 0 6 -5 8 -10 5 -6 -4 -6 4 1 19 12 25 33 26 43 0z m-60 -125
c-17 -19 -19 -19 -31 -3 -18 25 2 48 29 33 19 -10 19 -11 2 -30z"/>
<path d="M11230 5284 l0 -95 27 3 c23 2 29 10 38 44 15 61 30 74 86 74 l49 0
0 -178 0 -179 -40 -12 c-35 -10 -40 -16 -40 -41 l0 -30 140 0 140 0 0 30 c0
26 -5 31 -40 40 l-40 11 0 179 0 180 50 0 c56 0 73 -16 85 -82 6 -34 11 -38
36 -38 l29 0 0 95 0 95 -260 0 -260 0 0 -96z"/>
<path d="M6980 5322 c-43 -12 -66 -29 -54 -42 31 -31 -23 -98 -70 -86 -28 7
-36 -7 -36 -64 0 -63 49 -156 77 -146 8 3 11 2 8 -4 -7 -12 40 -36 88 -45 53
-10 130 20 173 67 19 21 34 45 34 53 0 24 1 29 9 40 8 11 8 11 -2 76 -16 100
-130 176 -227 151z m-12 -283 c4 -32 -20 -53 -52 -45 -18 4 -24 12 -22 29 4
37 16 48 44 45 21 -2 28 -9 30 -29z"/>
<path d="M6093 5266 c-24 -9 -30 -15 -23 -26 27 -43 -8 -95 -64 -95 -31 0 -31
0 -34 -57 -4 -73 23 -128 80 -165 36 -24 52 -28 113 -28 69 0 74 2 120 39 26
22 54 54 61 72 65 156 -93 318 -253 260z m11 -252 c21 -21 20 -37 -5 -60 -38
-34 -79 18 -43 57 21 23 28 24 48 3z"/>
<path d="M10120 4933 c-81 -6 -260 -44 -328 -70 -109 -40 -221 -103 -322 -179
-95 -72 -376 -351 -365 -362 8 -9 95 -31 121 -32 14 0 56 33 118 93 104 101
204 192 251 228 17 13 36 30 44 37 8 8 33 25 55 39 23 14 44 31 48 37 4 6 11
11 15 12 4 0 28 9 53 21 75 35 313 102 421 118 57 8 71 17 64 37 -10 27 -45
31 -175 21z"/>
<path d="M7855 4868 c-143 -63 -294 -167 -328 -226 -38 -65 7 -149 94 -173 73
-20 270 -15 377 11 l92 22 0 88 0 88 -37 33 c-52 44 -101 115 -109 156 -3 18
-9 33 -13 33 -3 0 -37 -15 -76 -32z"/>
<path d="M2302 4753 c-69 -34 -296 -305 -380 -455 -16 -29 -34 -48 -44 -48
-45 0 7 -60 80 -93 60 -27 167 -29 206 -4 30 20 34 57 11 97 -18 32 -19 50 -1
50 15 0 46 -67 47 -103 l0 -22 11 23 c9 18 8 34 -6 73 -18 49 -16 73 5 52 5
-5 18 -32 29 -59 15 -40 20 -45 26 -30 4 10 2 33 -5 50 -21 49 -24 76 -12 76
14 0 50 -76 51 -105 0 -28 33 -105 45 -105 6 0 32 14 58 31 l48 30 -51 95
c-37 67 -50 102 -46 118 9 37 77 92 123 99 41 7 66 27 77 63 9 29 -59 102
-138 149 -67 39 -86 42 -134 18z"/>
<path d="M11697 4693 c-19 -42 -22 -65 -22 -178 0 -113 3 -136 22 -177 13 -28
29 -48 38 -48 9 0 25 20 38 48 19 41 22 64 22 177 0 113 -3 136 -22 178 -13
27 -29 47 -38 47 -9 0 -25 -20 -38 -47z"/>
<path d="M14922 4712 c-21 -14 -22 -21 -22 -139 0 -134 8 -150 42 -83 17 33
17 35 -1 41 -30 12 -30 32 -1 100 21 51 25 69 16 81 -10 14 -14 14 -34 0z"/>
<path d="M14979 4671 c-3 -20 -4 -26 -12 -37 -4 -7 0 -11 11 -10 14 1 17 -7
16 -39 0 -22 -4 -49 -9 -59 -6 -14 -5 -17 4 -12 6 4 18 2 26 -4 18 -15 44 -6
41 14 -1 8 -10 24 -20 35 -19 21 -14 41 10 41 16 0 20 45 4 55 -5 3 -10 1 -10
-4 0 -6 -7 -11 -15 -11 -9 0 -15 7 -13 17 2 10 -4 19 -14 21 -10 2 -19 -1 -19
-7z"/>
<path d="M6215 4662 c-63 -13 -61 -59 5 -111 112 -89 250 -146 332 -139 94 9
233 101 222 146 -4 11 -15 29 -26 39 -21 18 -21 18 -15 -9 4 -14 10 -33 13
-41 4 -11 -5 -19 -33 -27 -63 -18 -194 -24 -253 -11 -77 16 -212 60 -235 77
-17 12 -17 15 -3 31 34 40 32 54 -7 45z"/>
<path d="M15070 4661 c0 -6 5 -13 10 -16 17 -11 11 -44 -11 -56 l-21 -11 23
-24 c28 -29 43 -20 72 45 19 43 19 45 1 58 -20 15 -74 18 -74 4z"/>
<path d="M14380 4535 c0 -61 3 -85 13 -85 22 0 34 14 42 48 9 45 30 62 76 62
l39 0 0 -159 0 -158 -32 -9 c-26 -8 -34 -16 -36 -37 l-3 -27 126 0 126 0 -3
27 c-2 21 -10 29 -35 37 l-33 9 0 158 0 159 39 0 c46 0 67 -17 76 -62 8 -34
20 -48 43 -48 9 0 12 24 12 85 l0 85 -225 0 -225 0 0 -85z"/>
<path d="M14947 4593 c-12 -11 -7 -33 7 -33 7 0 19 6 25 14 9 11 8 15 -5 20
-19 7 -19 7 -27 -1z"/>
<path d="M14966 4485 c-3 -8 -1 -15 4 -15 6 0 10 7 10 15 0 8 -2 15 -4 15 -2
0 -6 -7 -10 -15z"/>
<path d="M14900 4347 l1 -42 14 34 c18 41 18 38 0 45 -12 4 -15 -3 -15 -37z"/>
<path d="M15028 4367 c-27 -10 -40 -47 -18 -47 6 0 10 4 10 9 0 5 9 12 19 16
11 3 22 12 25 20 6 17 2 17 -36 2z"/>
<path d="M14937 4329 c-19 -48 -6 -60 40 -35 26 14 26 15 6 16 -18 0 -23 6
-23 26 0 14 4 23 10 19 6 -3 10 -1 10 4 0 27 -29 7 -43 -30z"/>
<path d="M4200 4235 c0 -40 -2 -45 -22 -45 -13 0 -135 7 -273 15 -137 8 -269
15 -291 15 l-41 0 8 -42 c19 -100 3 -393 -23 -409 -6 -4 -46 -14 -90 -24 -67
-14 -78 -20 -72 -33 81 -192 106 -427 69 -640 -13 -75 -57 -242 -91 -344 -5
-15 0 -18 37 -18 156 0 963 -43 1048 -55 218 -33 506 -36 691 -10 246 36 489
117 662 222 84 51 177 124 177 140 1 6 -15 24 -34 40 l-35 29 29 60 c48 102
122 169 268 242 l62 32 36 -50 c20 -28 40 -50 44 -50 7 0 141 384 141 403 0 4
-48 6 -106 5 l-107 -3 -12 -40 c-25 -85 -66 -122 -93 -83 -36 52 -141 153
-196 189 -32 22 -83 46 -112 56 l-54 17 -31 80 c-40 106 -42 142 -5 171 l28
22 -68 14 c-71 14 -87 15 -664 8 -273 -3 -344 -1 -445 14 -145 21 -296 59
-371 92 -31 14 -58 25 -60 25 -2 0 -4 -20 -4 -45z"/>
<path d="M14900 4238 c0 -34 2 -34 18 -1 9 17 9 22 -3 27 -11 4 -15 -2 -15
-26z"/>
<path d="M14902 4154 l3 -49 50 -7 c60 -8 127 -33 178 -65 22 -14 41 -22 44
-19 7 7 17 166 10 166 -3 0 -34 -7 -68 -16 -88 -23 -176 -15 -201 16 l-19 24
3 -50z"/>
<path d="M14510 4088 c1 -35 17 -42 62 -28 24 7 63 19 88 26 44 12 44 13 -52
13 -72 1 -98 -2 -98 -11z"/>
<path d="M1973 3931 c-39 -24 -96 -107 -156 -227 -57 -113 -132 -289 -160
-372 -13 -42 -27 -66 -40 -71 -18 -7 -17 -9 11 -33 37 -31 135 -53 201 -45 80
9 151 54 151 95 0 5 -13 29 -30 53 -32 47 -37 69 -17 69 14 -1 42 -37 68 -89
l18 -36 1 31 c0 19 -12 47 -31 74 -23 32 -28 45 -19 54 9 8 18 4 36 -19 13
-16 30 -42 36 -57 7 -15 16 -24 20 -22 16 10 7 42 -22 82 -33 46 -37 62 -16
62 18 0 49 -42 75 -101 11 -24 33 -59 48 -77 l28 -33 49 50 50 51 -20 22
c-106 120 -144 167 -144 179 0 8 14 38 31 67 23 42 40 58 74 73 83 37 100 98
40 143 -51 39 -154 85 -205 91 -35 5 -52 1 -77 -14z"/>
<path d="M9516 3689 c-210 -6 -241 -9 -252 -24 -14 -19 -32 -97 -36 -158 -3
-38 -2 -39 69 -77 l71 -38 244 9 c133 6 276 12 317 15 l73 6 -7 65 c-10 91
-30 153 -60 186 -29 31 4 30 -419 16z"/>
<path d="M17615 3570 c-23 -11 -56 -33 -74 -48 -49 -41 -39 -66 65 -157 l86
-75 88 0 c82 0 89 -2 103 -24 9 -13 69 -70 133 -127 146 -129 173 -177 126
-232 -8 -9 -13 -19 -11 -20 2 -2 33 -26 69 -52 36 -27 79 -62 95 -77 55 -52
101 -51 127 2 36 70 14 209 -52 340 -62 123 -210 292 -267 306 -23 6 -100 -6
-134 -20 -11 -5 -28 8 -59 49 -24 31 -67 78 -97 105 -51 46 -58 50 -106 50
-32 0 -68 -8 -92 -20z"/>
<path d="M8720 3439 c-70 -28 -80 -85 -27 -164 19 -28 37 -62 41 -77 6 -26 10
-28 60 -28 50 0 54 2 59 28 3 15 19 47 36 72 35 52 47 99 32 128 -23 44 -136
67 -201 41z"/>
<path d="M9109 3363 c-9 -10 -15 -48 -18 -100 l-3 -83 -98 0 c-116 0 -132 -4
-125 -34 3 -11 7 -34 10 -51 7 -36 25 -239 25 -277 0 -20 5 -28 18 -29 14 0
13 -2 -4 -9 -37 -15 -262 -24 -278 -11 -10 8 -15 52 -20 154 -8 144 -19 211
-42 236 -10 11 -15 9 -29 -13 -15 -23 -18 -60 -21 -274 l-4 -247 57 -46 c75
-59 171 -117 203 -121 14 -2 33 -13 43 -26 53 -64 173 -85 254 -44 53 27 102
87 109 133 l6 36 67 7 c147 14 184 9 241 -29 29 -19 58 -35 66 -35 8 0 37 -17
66 -37 49 -36 57 -38 123 -37 60 0 76 4 113 29 46 30 92 97 92 133 0 17 6 22
25 22 24 0 25 3 25 54 0 62 -3 60 109 77 l81 12 0 59 c0 52 -2 59 -17 54 -100
-32 -304 -48 -373 -30 -53 14 -117 7 -161 -16 -9 -6 -138 -17 -286 -25 -319
-18 -323 -18 -323 -5 0 6 3 9 8 9 4 -1 33 -1 65 0 l57 1 0 103 c-1 89 -9 150
-36 261 -7 28 -7 28 35 23 l41 -4 0 82 c0 67 -3 85 -18 98 -24 22 -66 22 -83
0z m705 -784 c-17 -19 -40 -24 -68 -13 -25 10 -18 22 9 16 28 -5 64 20 66 47
1 9 4 6 6 -7 3 -14 -3 -32 -13 -43z m-754 -19 c0 -23 -33 -60 -53 -60 -7 0
-22 7 -33 16 -16 13 -17 15 -1 10 26 -8 64 10 72 33 8 27 15 27 15 1z"/>
<path d="M13000 3316 c-56 -20 -80 -36 -192 -126 l-105 -85 320 -3 c236 -2
324 -6 336 -15 12 -9 13 -9 7 1 -8 13 11 16 38 6 13 -5 15 -51 16 -352 0 -190
2 -348 5 -350 4 -5 212 163 238 193 53 61 52 50 49 448 l-2 297 -337 0 c-248
-1 -347 -4 -373 -14z m613 -186 c14 -11 36 -46 49 -78 20 -50 22 -75 23 -202
0 -130 -2 -150 -23 -195 -31 -68 -59 -95 -97 -95 -43 0 -69 21 -93 77 -65 152
-48 399 33 480 38 38 71 42 108 13z"/>
<path d="M13530 3050 c-47 -92 -49 -294 -4 -387 28 -56 50 -55 76 4 45 100 33
347 -19 406 -23 25 -30 22 -53 -23z"/>
<path d="M11383 3300 c-35 -21 -52 -63 -36 -89 16 -25 72 -26 90 -2 8 12 20
21 27 21 27 0 34 50 10 74 -21 21 -52 20 -91 -4z"/>
<path d="M9611 3244 c-12 -15 -21 -34 -21 -44 0 -30 39 -70 69 -70 45 0 71 26
71 70 0 29 -6 43 -22 54 -34 24 -73 20 -97 -10z"/>
<path d="M12229 3165 c-50 -12 -152 -61 -188 -89 -11 -8 -15 -7 -19 3 -3 8
-15 25 -28 38 -35 35 -88 30 -143 -14 -2 -1 8 -12 23 -24 15 -12 25 -24 22
-27 -3 -3 -1 -11 5 -19 9 -10 8 -13 -5 -13 -22 0 -21 -20 2 -20 15 -1 15 -2
-2 -15 -11 -8 -17 -18 -13 -21 8 -9 -73 -74 -92 -74 -8 0 -12 -2 -9 -5 7 -7
-45 -60 -66 -68 -8 -3 -17 -3 -19 1 -2 4 -3 2 -1 -5 5 -21 -61 -63 -68 -43 -2
6 -9 5 -18 0 -13 -8 -12 -10 3 -10 23 0 22 -6 -9 -38 -15 -15 -23 -20 -18 -12
7 13 5 13 -9 1 -9 -7 -14 -18 -10 -25 3 -6 -4 -2 -18 9 -13 11 -18 13 -11 5 6
-8 12 -20 12 -27 0 -12 -36 -70 -51 -83 -3 -3 -25 -43 -48 -90 -51 -104 -66
-210 -36 -256 16 -25 21 -26 69 -21 58 6 131 35 231 91 192 108 548 424 704
626 70 90 91 129 91 168 0 25 -6 32 -44 46 -61 24 -169 29 -237 11z"/>
<path d="M11819 3036 c-7 -14 -15 -26 -18 -26 -3 0 -19 -12 -36 -26 l-30 -25
41 22 c38 19 72 64 60 77 -3 2 -11 -7 -17 -22z"/>
<path d="M10154 3004 c3 -9 6 -40 6 -70 0 -41 4 -54 15 -54 12 0 15 13 15 58
0 54 -11 82 -33 82 -5 0 -6 -7 -3 -16z"/>
<path d="M12510 2892 c-104 -144 -442 -465 -625 -593 -91 -63 -175 -111 -256
-144 -44 -18 -81 -35 -82 -39 -1 -3 14 -16 33 -27 23 -14 64 -25 125 -31 49
-5 128 -14 175 -19 47 -4 109 -11 137 -15 36 -4 67 -1 99 10 28 9 61 13 87 10
36 -5 54 0 119 34 49 25 81 36 90 31 27 -18 78 -10 105 17 24 24 25 31 20 84
-4 35 -3 62 3 65 6 4 20 25 31 47 16 32 20 54 16 92 -3 31 1 63 10 85 11 25
13 52 9 91 -4 31 -7 112 -7 181 0 118 -11 200 -27 198 -4 0 -32 -35 -62 -77z
m-82 -309 c-29 -49 -254 -273 -274 -273 -3 0 -15 -9 -27 -21 -58 -55 -239
-165 -287 -174 -11 -2 -25 -7 -31 -11 -17 -10 -79 -23 -79 -15 0 3 21 15 48
25 113 46 283 141 303 169 4 5 12 6 19 2 8 -5 11 -4 7 2 -7 10 49 63 66 63 4
0 5 5 2 10 -3 6 -2 10 3 10 4 0 65 56 134 125 69 69 128 125 131 125 4 0 -3
-17 -15 -37z"/>
<path d="M17952 2941 c-10 -6 -7 -12 12 -24 14 -10 34 -17 44 -17 23 0 58 25
46 33 -18 11 -89 17 -102 8z"/>
<path d="M11705 2929 c-4 -6 -5 -12 -2 -15 2 -3 7 2 10 11 7 17 1 20 -8 4z"/>
<path d="M11658 2902 c-16 -10 -28 -20 -28 -25 0 -4 10 -1 23 8 13 8 26 13 29
10 2 -3 5 2 5 10 0 8 -1 15 -1 14 -1 0 -13 -8 -28 -17z"/>
<path d="M11746 2882 c-3 -5 1 -9 9 -9 8 0 12 4 9 9 -3 4 -7 8 -9 8 -2 0 -6
-4 -9 -8z"/>
<path d="M6811 2793 c-26 -111 -34 -163 -32 -194 1 -15 39 -28 106 -34 11 -1
28 -6 38 -10 11 -4 17 -3 17 5 0 7 18 1 46 -15 25 -15 48 -24 51 -21 4 3 1 6
-5 6 -7 0 -12 5 -12 11 0 6 7 8 16 5 8 -3 12 -2 9 4 -3 6 -16 8 -28 5 -12 -3
-30 0 -40 7 -16 12 -15 13 7 13 13 0 22 -4 18 -9 -3 -5 3 -6 13 -2 10 4 28 0
42 -9 16 -11 34 -14 53 -10 18 4 33 1 41 -8 12 -12 16 -11 31 8 15 19 16 31 7
86 -11 72 -49 209 -58 209 -3 0 -49 -43 -102 -96 l-97 -96 -17 53 c-21 63 -72
179 -79 179 -2 0 -14 -39 -25 -87z m49 -203 c8 -5 12 -11 9 -14 -3 -3 -14 1
-25 9 -21 16 -8 20 16 5z m65 -10 c3 -5 2 -10 -4 -10 -5 0 -13 5 -16 10 -3 6
-2 10 4 10 5 0 13 -4 16 -10z"/>
<path d="M11580 2856 c0 -2 7 -7 16 -10 8 -3 12 -2 9 4 -6 10 -25 14 -25 6z"/>
<path d="M11729 2843 c-13 -16 -12 -17 4 -4 16 13 21 21 13 21 -2 0 -10 -8
-17 -17z"/>
<path d="M11525 2821 c-3 -5 0 -13 6 -17 8 -5 9 -3 4 6 -6 10 -4 12 9 7 10 -4
15 -3 11 3 -8 13 -22 13 -30 1z"/>
<path d="M11655 2790 c-3 -6 1 -7 9 -4 18 7 21 14 7 14 -6 0 -13 -4 -16 -10z"/>
<path d="M6608 2753 c-8 -10 -18 -23 -21 -29 -8 -14 12 -74 24 -74 5 0 9 -6 9
-14 0 -7 7 -19 15 -26 8 -7 12 -17 8 -23 -3 -6 -1 -7 6 -3 6 4 19 2 28 -6 15
-11 16 -11 10 5 -4 11 -2 17 8 17 8 0 15 -5 15 -12 0 -6 3 -8 6 -5 4 3 15 2
25 -4 21 -11 20 -9 -19 81 -19 45 -72 110 -89 110 -6 0 -17 -8 -25 -17z"/>
<path d="M11503 2750 c1 -11 5 -20 9 -20 11 0 10 28 -1 35 -6 3 -9 -4 -8 -15z"/>
<path d="M7402 2571 c-25 -13 -30 -19 -20 -29 9 -9 9 -12 1 -12 -7 0 -15 5
-18 10 -4 6 -11 7 -17 4 -7 -4 -4 -10 6 -16 9 -5 14 -13 11 -19 -4 -5 5 -5 20
1 15 6 24 6 20 1 -3 -5 7 -8 22 -7 24 3 28 8 31 38 4 44 -12 52 -56 29z"/>
<path d="M7327 2515 c3 -8 9 -12 14 -9 12 7 11 11 -5 17 -10 4 -13 1 -9 -8z"/>
<path d="M16400 1167 c0 -2 -22 -68 -50 -147 -27 -79 -49 -144 -47 -146 1 -1
20 1 42 5 30 6 46 3 65 -9 14 -10 54 -20 89 -23 37 -3 67 -11 72 -19 7 -11 9
-11 9 1 0 10 10 12 38 7 134 -20 176 -25 254 -28 80 -3 87 -2 92 17 9 32 7 87
-5 130 -9 33 -73 171 -84 183 -2 2 -72 -40 -156 -93 -116 -74 -154 -93 -161
-83 -5 7 -16 26 -24 42 -42 78 -105 166 -119 166 -8 0 -15 -1 -15 -3z"/>
<path d="M16023 1073 c-16 -3 -23 -11 -23 -28 0 -29 76 -131 95 -127 9 2 13
-3 9 -12 -7 -19 12 -29 61 -32 22 -1 51 -5 64 -9 21 -7 23 -6 17 10 -5 15 -4
16 9 5 9 -7 18 -10 22 -6 3 3 1 6 -5 6 -7 0 -12 5 -12 11 0 5 5 7 11 3 17 -10
-21 52 -59 96 -46 55 -134 93 -189 83z"/>
<path d="M17255 856 c-33 -12 -87 -36 -120 -53 l-60 -31 63 5 c48 5 62 3 62
-8 0 -10 3 -10 12 -1 14 14 42 16 33 2 -4 -6 18 -10 59 -10 l64 0 12 34 c6 19
8 46 4 60 -8 33 -45 34 -129 2z"/>
<path d="M16917 783 c3 -7 6 -13 8 -13 2 0 5 6 8 13 3 8 -1 14 -8 14 -7 0 -11
-6 -8 -14z"/>
<path d="M17040 761 c0 -7 -5 -9 -12 -5 -7 5 -8 3 -3 -5 5 -9 10 -10 18 -2 6
6 8 14 4 18 -4 3 -7 1 -7 -6z"/>
</g>
</svg>
